<svg width="24" height="24" viewBox="0 0 24 24" fill="none" xmlns="http://www.w3.org/2000/svg">
<path d="M17 6.8999C17 6.30895 16.8707 5.72379 16.6194 5.17783C16.3681 4.63186 15.9998 4.13579 15.5355 3.71792C15.0712 3.30006 14.52 2.96859 13.9134 2.74244C13.3068 2.5163 12.6566 2.3999 12 2.3999C11.3434 2.3999 10.6932 2.5163 10.0866 2.74244C9.47995 2.96859 8.92876 3.30006 8.46447 3.71792C8.00017 4.13579 7.63188 4.63186 7.3806 5.17783C7.12933 5.72379 7 6.30895 7 6.8999" stroke="#191919" stroke-linecap="round"/>
<path d="M17.2519 7.57446H6.75452C4.30036 7.57446 2.42492 9.76409 2.80203 12.1891L3.76214 18.3632C4.06513 20.3116 5.74281 21.7485 7.71464 21.7485H16.2918C18.2636 21.7485 19.9413 20.3116 20.2443 18.3632L21.2044 12.1891C21.5815 9.76409 19.7061 7.57446 17.2519 7.57446Z" stroke="#191919"/>
</svg>
