<svg width="19" height="20" viewBox="0 0 19 20" fill="none" xmlns="http://www.w3.org/2000/svg">
<path d="M17.3928 15.0112C17.3928 15.2962 17.3295 15.5891 17.1949 15.8741C17.0603 16.1591 16.8862 16.4283 16.6566 16.6816C16.2687 17.1091 15.8412 17.4178 15.3583 17.6158C14.8833 17.8137 14.3687 17.9166 13.8145 17.9166C13.007 17.9166 12.1441 17.7266 11.2337 17.3387C10.3233 16.9508 9.41284 16.4283 8.51034 15.7712C7.59992 15.1062 6.737 14.3699 5.91367 13.5545C5.09825 12.7312 4.362 11.8683 3.70492 10.9658C3.05575 10.0633 2.53325 9.16075 2.15325 8.26617C1.77325 7.36367 1.58325 6.50075 1.58325 5.67742C1.58325 5.13909 1.67825 4.6245 1.86825 4.1495C2.05825 3.66659 2.35909 3.22325 2.77867 2.82742C3.28534 2.32867 3.8395 2.08325 4.42534 2.08325C4.647 2.08325 4.86867 2.13075 5.06659 2.22575C5.27242 2.32075 5.4545 2.46325 5.597 2.66909L7.43367 5.25784C7.57617 5.45575 7.67909 5.63784 7.75034 5.812C7.82159 5.97825 7.86117 6.1445 7.86117 6.29492C7.86117 6.48492 7.80575 6.67492 7.69492 6.857C7.592 7.03908 7.44159 7.22908 7.25159 7.41908L6.64992 8.0445C6.56284 8.13158 6.52325 8.2345 6.52325 8.36117C6.52325 8.4245 6.53117 8.47992 6.547 8.54325C6.57075 8.60658 6.5945 8.65408 6.61034 8.70158C6.75284 8.96283 6.99825 9.30325 7.34659 9.71492C7.70284 10.1266 8.08284 10.5462 8.4945 10.9658C8.922 11.3853 9.33367 11.7733 9.75325 12.1295C10.1649 12.4778 10.5053 12.7153 10.7745 12.8578C10.8141 12.8737 10.8616 12.8974 10.917 12.9212C10.9803 12.9449 11.0437 12.9528 11.1149 12.9528C11.2495 12.9528 11.3524 12.9053 11.4395 12.8183L12.0412 12.2245C12.2391 12.0266 12.4291 11.8762 12.6112 11.7812C12.7933 11.6703 12.9753 11.6149 13.1733 11.6149C13.3237 11.6149 13.482 11.6466 13.6562 11.7178C13.8303 11.7891 14.0124 11.892 14.2103 12.0266L16.8308 13.887C17.0366 14.0295 17.1791 14.1958 17.2662 14.3937C17.3453 14.5916 17.3928 14.7895 17.3928 15.0112Z" stroke="#8C8C8C" stroke-width="1.17647" stroke-miterlimit="10"/>
</svg>
