<svg width="144" height="54" viewBox="0 0 144 54" fill="none" xmlns="http://www.w3.org/2000/svg">
<path d="M49.9319 1.95137C50.5269 1.95137 51.0308 1.96961 51.4436 2.00607C51.8686 2.03038 52.2571 2.07293 52.6092 2.1337C52.9613 2.19448 53.3256 2.27957 53.702 2.38896L53.4834 4.43106C53.0827 4.40675 52.7124 4.38851 52.3724 4.37636C52.0446 4.3642 51.6864 4.35812 51.2979 4.35812C50.9215 4.34597 50.4662 4.33989 49.9319 4.33989C49.3127 4.33989 48.827 4.46145 48.4749 4.70455C48.1349 4.94766 47.8921 5.37309 47.7464 5.98086C47.6007 6.57647 47.5278 7.40303 47.5278 8.46054C47.5278 9.51806 47.6007 10.3507 47.7464 10.9585C47.8921 11.5541 48.1349 11.9734 48.4749 12.2165C48.827 12.4596 49.3127 12.5812 49.9319 12.5812C50.7697 12.5812 51.4739 12.569 52.0446 12.5447C52.6153 12.5204 53.1799 12.4779 53.7384 12.4171L53.9752 14.4592C53.3924 14.6415 52.7974 14.7692 52.1903 14.8421C51.5832 14.9272 50.8304 14.9697 49.9319 14.9697C48.6327 14.9697 47.5885 14.7631 46.7993 14.3498C46.0222 13.9244 45.4576 13.2376 45.1055 12.2895C44.7655 11.3414 44.5956 10.065 44.5956 8.46054C44.5956 6.85604 44.7655 5.57973 45.1055 4.63162C45.4576 3.68351 46.0222 3.00281 46.7993 2.58953C47.5885 2.16409 48.6327 1.95137 49.9319 1.95137Z" fill="#E899A5"/>
<path d="M57.6704 5.74383L57.9982 7.53066L58.2532 7.76769V14.7509H55.5577V5.74383H57.6704ZM62.0597 5.5068L61.8047 8.00472H61.058C60.633 8.00472 60.1898 8.0655 59.7284 8.18705C59.2671 8.3086 58.6842 8.49093 57.98 8.73404L57.7979 7.2207C58.4293 6.66156 59.0667 6.23612 59.7102 5.94439C60.3538 5.65267 60.9791 5.5068 61.5862 5.5068H62.0597Z" fill="#E899A5"/>
<path d="M67.4497 5.5068C68.9674 5.5068 70.0541 5.76814 70.7098 6.29082C71.3776 6.80134 71.7115 7.56713 71.7115 8.58817C71.7237 9.41474 71.5172 10.0347 71.0923 10.4479C70.6673 10.8491 69.9327 11.0496 68.8885 11.0496H63.8618V9.53629H68.1418C68.5546 9.53629 68.8157 9.4512 68.9249 9.28103C69.0464 9.0987 69.1071 8.84951 69.1071 8.53348C69.0949 8.10804 68.9674 7.81631 68.7246 7.65829C68.4939 7.48812 68.0993 7.40303 67.5408 7.40303C67.043 7.40303 66.6544 7.46989 66.3751 7.60359C66.0959 7.7373 65.9016 7.99256 65.7923 8.36938C65.6831 8.74619 65.6284 9.29318 65.6284 10.0103C65.6284 10.764 65.6952 11.3474 65.8288 11.7607C65.9623 12.1618 66.1869 12.4414 66.5026 12.5994C66.8305 12.7574 67.2797 12.8365 67.8504 12.8365C68.2632 12.8365 68.7732 12.8243 69.3803 12.8C69.9995 12.7635 70.6187 12.7088 71.238 12.6359L71.493 14.2951C71.1408 14.4653 70.7402 14.599 70.2909 14.6962C69.8417 14.7935 69.3803 14.8603 68.9067 14.8968C68.4332 14.9454 67.9779 14.9697 67.5408 14.9697C66.3994 14.9697 65.4766 14.8056 64.7724 14.4774C64.0803 14.1371 63.5764 13.6205 63.2607 12.9276C62.9572 12.2348 62.8054 11.3474 62.8054 10.2656C62.8054 9.08654 62.9633 8.15058 63.279 7.45773C63.5947 6.76488 64.0925 6.26651 64.7724 5.96263C65.4524 5.65874 66.3448 5.5068 67.4497 5.5068Z" fill="#E899A5"/>
<path d="M78.2218 5.5068C78.9746 5.5068 79.612 5.61012 80.1341 5.81676C80.6562 6.01125 81.0508 6.3516 81.3179 6.83781C81.5972 7.31187 81.7368 7.96825 81.7368 8.80697V14.7509H79.5877L79.2052 12.8L79.0231 12.5265V8.78874C79.0231 8.3633 78.9199 8.05334 78.7135 7.85886C78.5192 7.66437 78.1428 7.56713 77.5843 7.56713C77.1229 7.56713 76.5462 7.58536 75.8541 7.62183C75.162 7.64614 74.4517 7.6826 73.7232 7.73123L73.4682 5.94439C73.9053 5.85931 74.4092 5.78638 74.9799 5.7256C75.5505 5.66482 76.1212 5.6162 76.6919 5.57973C77.2625 5.53111 77.7725 5.5068 78.2218 5.5068ZM80.6259 9.2081L80.6076 10.7214L76.6008 10.7397C76.273 10.7397 76.0362 10.8187 75.8905 10.9767C75.7569 11.1347 75.6902 11.3474 75.6902 11.6148V12.0524C75.6902 12.3563 75.7752 12.5934 75.9452 12.7635C76.1151 12.9215 76.3883 13.0006 76.7647 13.0006C77.0804 13.0006 77.4204 12.9337 77.7846 12.8C78.161 12.6663 78.5314 12.4779 78.8956 12.2348C79.2599 11.9917 79.5816 11.706 79.8609 11.3778V12.5447C79.7516 12.7271 79.5877 12.958 79.3692 13.2376C79.1628 13.505 78.8956 13.7724 78.5678 14.0398C78.24 14.2951 77.8575 14.5139 77.4204 14.6962C76.9833 14.8786 76.4855 14.9697 75.9269 14.9697C75.3806 14.9697 74.8888 14.8725 74.4517 14.678C74.0146 14.4835 73.6685 14.1979 73.4136 13.821C73.1586 13.4442 73.0311 12.9762 73.0311 12.4171V11.4872C73.0311 10.7701 73.2739 10.2109 73.7596 9.80978C74.2453 9.40866 74.9131 9.2081 75.763 9.2081H80.6259Z" fill="#E899A5"/>
<path d="M87.3703 3.24591V11.8701C87.3703 12.1983 87.4432 12.4353 87.5889 12.5812C87.7467 12.7149 88.0017 12.7818 88.3538 12.7818H89.5194L89.8108 14.6051C89.5923 14.678 89.3251 14.7388 89.0095 14.7874C88.6938 14.8482 88.3781 14.8907 88.0624 14.915C87.7467 14.9515 87.4796 14.9697 87.261 14.9697C86.4475 14.9697 85.8101 14.7509 85.3487 14.3133C84.8994 13.8757 84.6748 13.2619 84.6748 12.4718L84.6566 3.24591H87.3703ZM89.8837 5.74383V7.51243H83.0903V5.835L84.8387 5.74383H89.8837Z" fill="#E899A5"/>
<path d="M94.0755 5.74383V14.7509H91.3982V5.74383H94.0755ZM93.3288 1.76904C93.863 1.76904 94.1301 2.04254 94.1301 2.58953V3.55587C94.1301 4.10286 93.863 4.37636 93.3288 4.37636H92.1631C91.6289 4.37636 91.3618 4.10286 91.3618 3.55587V2.58953C91.3618 2.04254 91.6289 1.76904 92.1631 1.76904H93.3288Z" fill="#E899A5"/>
<path d="M105.429 5.74383L102.46 14.1128C102.387 14.3073 102.272 14.4653 102.114 14.5868C101.968 14.6962 101.792 14.7509 101.586 14.7509H99.2364C99.03 14.7509 98.8479 14.6962 98.69 14.5868C98.5443 14.4653 98.435 14.3073 98.3622 14.1128L95.3935 5.74383H98.2529L99.9103 11.3778C99.9831 11.6452 100.05 11.9187 100.111 12.1983C100.171 12.4779 100.232 12.7453 100.293 13.0006H100.53C100.602 12.7331 100.669 12.4657 100.73 12.1983C100.803 11.9187 100.876 11.6452 100.948 11.3778L102.569 5.74383H105.429Z" fill="#E899A5"/>
<path d="M110.776 5.5068C112.294 5.5068 113.381 5.76814 114.036 6.29082C114.704 6.80134 115.038 7.56713 115.038 8.58817C115.05 9.41474 114.844 10.0347 114.419 10.4479C113.994 10.8491 113.259 11.0496 112.215 11.0496H107.188V9.53629H111.468C111.881 9.53629 112.142 9.4512 112.252 9.28103C112.373 9.0987 112.434 8.84951 112.434 8.53348C112.422 8.10804 112.294 7.81631 112.051 7.65829C111.821 7.48812 111.426 7.40303 110.867 7.40303C110.37 7.40303 109.981 7.46989 109.702 7.60359C109.423 7.7373 109.228 7.99256 109.119 8.36938C109.01 8.74619 108.955 9.29318 108.955 10.0103C108.955 10.764 109.022 11.3474 109.155 11.7607C109.289 12.1618 109.514 12.4414 109.829 12.5994C110.157 12.7574 110.606 12.8365 111.177 12.8365C111.59 12.8365 112.1 12.8243 112.707 12.8C113.326 12.7635 113.945 12.7088 114.565 12.6359L114.82 14.2951C114.468 14.4653 114.067 14.599 113.618 14.6962C113.168 14.7935 112.707 14.8603 112.233 14.8968C111.76 14.9454 111.305 14.9697 110.867 14.9697C109.726 14.9697 108.803 14.8056 108.099 14.4774C107.407 14.1371 106.903 13.6205 106.587 12.9276C106.284 12.2348 106.132 11.3474 106.132 10.2656C106.132 9.08654 106.29 8.15058 106.606 7.45773C106.921 6.76488 107.419 6.26651 108.099 5.96263C108.779 5.65874 109.671 5.5068 110.776 5.5068Z" fill="#E899A5"/>
<path d="M49.167 19.608C49.7862 19.608 50.4601 19.6444 51.1886 19.7174C51.9171 19.7781 52.6274 19.9118 53.3195 20.1185L53.1374 21.96C52.6031 21.9479 51.9778 21.9357 51.2615 21.9235C50.5451 21.9114 49.8409 21.9053 49.1488 21.9053C48.8088 21.9053 48.5174 21.9175 48.2746 21.9418C48.0439 21.9539 47.8557 22.0026 47.71 22.0876C47.5643 22.1606 47.461 22.2761 47.4003 22.4341C47.3396 22.5921 47.3093 22.8109 47.3093 23.0905C47.3093 23.5159 47.4064 23.8259 47.6007 24.0203C47.8071 24.2148 48.1531 24.3911 48.6388 24.5491L51.0611 25.3331C52.0689 25.6735 52.7671 26.1354 53.1556 26.7188C53.5441 27.3023 53.7384 28.0681 53.7384 29.0162C53.7384 29.7333 53.6534 30.329 53.4834 30.803C53.3134 31.2771 53.0463 31.6478 52.6821 31.9152C52.3178 32.1826 51.8382 32.371 51.2432 32.4804C50.6483 32.602 49.9198 32.6628 49.0577 32.6628C48.6449 32.6628 48.056 32.6324 47.2911 32.5716C46.5261 32.523 45.6519 32.3893 44.6684 32.1705L44.8505 30.2013C45.5669 30.2135 46.1861 30.2317 46.7082 30.256C47.2425 30.2682 47.6978 30.2803 48.0742 30.2925C48.4506 30.2925 48.7784 30.2925 49.0577 30.2925C49.5434 30.2925 49.9198 30.2621 50.1869 30.2013C50.4662 30.1405 50.6604 30.019 50.7697 29.8367C50.879 29.6543 50.9336 29.393 50.9336 29.0526C50.9336 28.7609 50.8911 28.53 50.8061 28.3598C50.7333 28.1775 50.6058 28.0377 50.4237 27.9404C50.2537 27.831 50.0169 27.7338 49.7134 27.6487L47.1636 26.7735C46.2044 26.421 45.5244 25.9591 45.1237 25.3878C44.723 24.8165 44.5227 24.0629 44.5227 23.1269C44.5227 22.3976 44.6077 21.8081 44.7777 21.3583C44.9598 20.8964 45.233 20.5378 45.5973 20.2826C45.9737 20.0273 46.4533 19.8511 47.0361 19.7538C47.631 19.6566 48.3413 19.608 49.167 19.608Z" fill="#E899A5"/>
<path d="M58.2723 23.4187V32.4257H55.595V23.4187H58.2723ZM57.5255 19.4439C58.0598 19.4439 58.3269 19.7174 58.3269 20.2643V21.2307C58.3269 21.7777 58.0598 22.0512 57.5255 22.0512H56.3599C55.8257 22.0512 55.5586 21.7777 55.5586 21.2307V20.2643C55.5586 19.7174 55.8257 19.4439 56.3599 19.4439H57.5255Z" fill="#E899A5"/>
<path d="M64.5624 23.1816C65.6066 23.1816 66.4323 23.2789 67.0393 23.4734C67.6586 23.6678 68.1018 23.9717 68.3689 24.385C68.6481 24.7983 68.7878 25.3513 68.7878 26.0442C68.7878 26.7127 68.6542 27.2597 68.3871 27.6852C68.12 28.0985 67.6707 28.4023 67.0393 28.5968C66.4201 28.7913 65.5884 28.8885 64.5442 28.8885C63.5 28.8885 62.6622 28.7913 62.0308 28.5968C61.4116 28.4023 60.9623 28.0985 60.6831 27.6852C60.4159 27.2719 60.2824 26.7249 60.2824 26.0442C60.2824 25.3635 60.4159 24.8165 60.6831 24.4032C60.9623 23.9778 61.4176 23.6678 62.049 23.4734C62.6804 23.2789 63.5182 23.1816 64.5624 23.1816ZM64.5442 24.8408C63.8764 24.8408 63.415 24.932 63.16 25.1143C62.905 25.2845 62.7775 25.5945 62.7775 26.0442C62.7775 26.4939 62.905 26.81 63.16 26.9923C63.415 27.1746 63.8764 27.2658 64.5442 27.2658C65.212 27.2658 65.6673 27.1746 65.9101 26.9923C66.153 26.81 66.2744 26.4939 66.2744 26.0442C66.2744 25.5945 66.153 25.2845 65.9101 25.1143C65.6673 24.932 65.212 24.8408 64.5442 24.8408ZM69.8259 23.4187L69.6802 24.5673L67.2761 24.8773L66.6205 23.4187H69.8259ZM61.8305 28.3416L63.1782 28.5786C63.0082 28.6758 62.8868 28.8278 62.814 29.0344C62.7533 29.2411 62.7715 29.4355 62.8686 29.6179C62.9657 29.8002 63.1782 29.9096 63.5061 29.9461L66.8208 30.329C67.7679 30.4262 68.4357 30.6936 68.8242 31.1312C69.2127 31.5566 69.407 32.1826 69.407 33.0092C69.407 33.7871 69.2492 34.3828 68.9335 34.796C68.6178 35.2215 68.1139 35.5132 67.4218 35.6712C66.7297 35.8292 65.8069 35.9082 64.6535 35.9082C63.7064 35.9082 62.9232 35.8596 62.304 35.7624C61.6969 35.6773 61.2112 35.5314 60.847 35.3248C60.4949 35.1181 60.246 34.8447 60.1002 34.5043C59.9667 34.1761 59.8999 33.7628 59.8999 33.2645C59.8999 32.8876 59.9667 32.5655 60.1002 32.2981C60.2338 32.0185 60.4584 31.7694 60.7741 31.5506C61.102 31.3318 61.5573 31.1312 62.1401 30.9489L63.4696 30.4748L64.4349 30.8577L63.7064 31.3318C63.4028 31.5506 63.1539 31.739 62.9597 31.897C62.7775 32.0429 62.644 32.1887 62.559 32.3346C62.4861 32.4804 62.4497 32.6749 62.4497 32.918C62.4497 33.1976 62.5104 33.4103 62.6318 33.5562C62.7533 33.7142 62.9718 33.8175 63.2875 33.8661C63.6153 33.9269 64.0585 33.9573 64.617 33.9573C65.1998 33.9573 65.6552 33.9269 65.983 33.8661C66.3108 33.8175 66.5355 33.7203 66.6569 33.5744C66.7904 33.4286 66.8572 33.2219 66.8572 32.9545C66.8572 32.7235 66.8087 32.5534 66.7115 32.444C66.6265 32.3346 66.4747 32.2556 66.2562 32.2069C66.0498 32.1462 65.7584 32.0915 65.382 32.0429L62.559 31.7329C62.0854 31.6843 61.7151 31.5566 61.448 31.35C61.1809 31.1434 60.9927 30.8942 60.8834 30.6024C60.7863 30.2986 60.762 29.9947 60.8105 29.6908C60.8591 29.3869 60.9684 29.1134 61.1384 28.8703C61.3205 28.6272 61.5512 28.451 61.8305 28.3416Z" fill="#E899A5"/>
<path d="M77.4035 23.1816C79.1033 23.1816 79.9533 24.0143 79.9533 25.6795V32.4257H77.2395V26.5183C77.2395 26.1171 77.1667 25.8436 77.021 25.6978C76.8874 25.5398 76.6446 25.4607 76.2925 25.4607C75.9039 25.4607 75.5032 25.5337 75.0904 25.6795C74.6776 25.8254 74.1676 26.0624 73.5605 26.3906L73.3238 24.9867C73.9916 24.4032 74.6715 23.9596 75.3636 23.6557C76.0557 23.3396 76.7357 23.1816 77.4035 23.1816ZM73.8337 19.6627L73.8519 22.7805C73.8519 23.2546 73.8216 23.7043 73.7609 24.1297C73.7123 24.5552 73.6516 24.9138 73.5788 25.2055L73.8337 25.4425V32.4257H71.1382V19.6627H73.8337Z" fill="#E899A5"/>
<path d="M85.5917 20.9207V29.5449C85.5917 29.8731 85.6646 30.1102 85.8103 30.256C85.9681 30.3897 86.2231 30.4566 86.5752 30.4566H87.7408L88.0322 32.2799C87.8137 32.3528 87.5465 32.4136 87.2309 32.4622C86.9152 32.523 86.5995 32.5655 86.2838 32.5898C85.9681 32.6263 85.701 32.6445 85.4824 32.6445C84.6689 32.6445 84.0315 32.4257 83.5701 31.9881C83.1208 31.5506 82.8962 30.9367 82.8962 30.1466L82.878 20.9207H85.5917ZM88.1051 23.4187V25.1873H81.3117V23.5098L83.0601 23.4187H88.1051Z" fill="#E899A5"/>
<path d="M98.832 19.5897C99.3784 19.5897 99.8762 19.608 100.325 19.6444C100.775 19.6809 101.2 19.7295 101.6 19.7903C102.013 19.8511 102.414 19.9422 102.802 20.0638L102.584 22.0876C102.159 22.0633 101.746 22.0451 101.345 22.0329C100.945 22.0208 100.544 22.0147 100.143 22.0147C99.7427 22.0026 99.3238 21.9965 98.8867 21.9965C98.3646 21.9965 97.9274 22.0512 97.5753 22.1606C97.2354 22.27 96.9622 22.4766 96.7558 22.7805C96.5493 23.0722 96.3976 23.4977 96.3004 24.0568C96.2154 24.6038 96.1729 25.3088 96.1729 26.1718C96.1729 27.2172 96.2397 28.0377 96.3733 28.6333C96.5068 29.2289 96.7315 29.6543 97.0472 29.9096C97.3629 30.1527 97.7878 30.2743 98.3221 30.2743C98.6863 30.2743 99.0202 30.2378 99.3238 30.1649C99.6273 30.0919 99.9066 29.9947 100.162 29.8731C100.417 29.7394 100.653 29.6118 100.872 29.4902L101.163 30.803C100.981 31.0583 100.708 31.3318 100.344 31.6235C99.9916 31.9152 99.5605 32.1644 99.0506 32.371C98.5406 32.5777 97.9578 32.681 97.3021 32.681C96.3551 32.681 95.578 32.4561 94.9709 32.0064C94.3759 31.5566 93.9388 30.8516 93.6596 29.8914C93.3803 28.9189 93.2407 27.6609 93.2407 26.1171C93.2407 24.4762 93.4167 23.1816 93.7688 22.2335C94.1331 21.2854 94.722 20.6108 95.5355 20.2097C96.3611 19.7964 97.46 19.5897 98.832 19.5897ZM103.24 25.169V32.4257H101.181L100.799 30.5113L100.544 30.0008V25.169H103.24Z" fill="#E899A5"/>
<path d="M107.4 23.4187L107.728 25.2055L107.983 25.4425V32.4257H105.287V23.4187H107.4ZM111.789 23.1816L111.534 25.6795H110.788C110.363 25.6795 109.919 25.7403 109.458 25.8619C108.997 25.9834 108.414 26.1658 107.71 26.4089L107.528 24.8955C108.159 24.3364 108.796 23.9109 109.44 23.6192C110.083 23.3275 110.709 23.1816 111.316 23.1816H111.789Z" fill="#E899A5"/>
<path d="M117.198 23.1816C118.327 23.1816 119.231 23.3396 119.911 23.6557C120.591 23.9596 121.077 24.4579 121.368 25.1508C121.672 25.8436 121.824 26.7735 121.824 27.9404C121.824 29.083 121.672 30.0008 121.368 30.6936C121.077 31.3865 120.591 31.8848 119.911 32.1887C119.231 32.4926 118.327 32.6445 117.198 32.6445C116.08 32.6445 115.176 32.4926 114.484 32.1887C113.804 31.8848 113.312 31.3865 113.009 30.6936C112.705 30.0008 112.553 29.083 112.553 27.9404C112.553 26.7735 112.705 25.8436 113.009 25.1508C113.312 24.4579 113.804 23.9596 114.484 23.6557C115.176 23.3396 116.08 23.1816 117.198 23.1816ZM117.198 25.1508C116.736 25.1508 116.372 25.2298 116.105 25.3878C115.838 25.5458 115.649 25.8254 115.54 26.2265C115.431 26.6277 115.376 27.199 115.376 27.9404C115.376 28.6698 115.431 29.235 115.54 29.6361C115.649 30.0372 115.838 30.3168 116.105 30.4748C116.372 30.6207 116.736 30.6936 117.198 30.6936C117.659 30.6936 118.023 30.6207 118.29 30.4748C118.557 30.3168 118.746 30.0372 118.855 29.6361C118.964 29.235 119.019 28.6698 119.019 27.9404C119.019 27.199 118.964 26.6277 118.855 26.2265C118.746 25.8254 118.557 25.5458 118.29 25.3878C118.023 25.2298 117.659 25.1508 117.198 25.1508Z" fill="#E899A5"/>
<path d="M126.301 23.4187V29.3444C126.301 29.7212 126.38 29.9886 126.538 30.1466C126.708 30.3046 126.975 30.3836 127.339 30.3836C127.716 30.3836 128.086 30.3168 128.45 30.1831C128.827 30.0372 129.288 29.8123 129.834 29.5085L130.053 30.9853C129.397 31.5566 128.754 31.9821 128.122 32.2616C127.491 32.5412 126.841 32.681 126.174 32.681C124.462 32.681 123.606 31.8423 123.606 30.1649V23.4187H126.301ZM132.257 23.4187V32.4257H130.126L129.816 30.6571L129.561 30.4019V23.4187H132.257Z" fill="#E899A5"/>
<path d="M140.376 23.1999C141.505 23.1999 142.312 23.6131 142.798 24.4397C143.284 25.2663 143.526 26.4514 143.526 27.9951C143.526 29.1985 143.399 30.1405 143.144 30.8212C142.901 31.5019 142.525 31.9821 142.015 32.2616C141.517 32.5291 140.892 32.6628 140.139 32.6628C139.495 32.6628 138.882 32.5716 138.299 32.3893C137.716 32.2069 137.2 31.9031 136.751 31.4776L136.933 30.2743C137.334 30.3958 137.698 30.5052 138.026 30.6024C138.366 30.6875 138.749 30.7301 139.174 30.7301C139.562 30.7301 139.872 30.6632 140.102 30.5295C140.333 30.3958 140.497 30.1345 140.594 29.7455C140.703 29.3444 140.758 28.767 140.758 28.0134C140.758 27.2719 140.709 26.7067 140.612 26.3177C140.515 25.9166 140.357 25.6431 140.139 25.4972C139.92 25.3392 139.635 25.2602 139.283 25.2602C138.894 25.2602 138.536 25.3392 138.208 25.4972C137.88 25.6431 137.51 25.8558 137.097 26.1354L136.751 24.8955C136.994 24.5673 137.304 24.2756 137.68 24.0203C138.069 23.7651 138.494 23.5645 138.955 23.4187C139.416 23.2728 139.89 23.1999 140.376 23.1999ZM136.642 23.4187L136.897 25.0596L137.152 25.3331V31.1859L137.061 31.4047C137.097 31.7694 137.122 32.1462 137.134 32.5351C137.158 32.9363 137.164 33.3313 137.152 33.7203V35.89H134.456V23.4187H136.642Z" fill="#E899A5"/>
<path d="M11.5898 24.0473C11.7663 27.0154 11.7663 30.6728 11.5898 34.9837C8.05914 33.3581 5.33999 31.1144 3.45093 28.2346C1.3502 24.9835 0.467045 21.1674 0.767623 16.7504C0.997204 13.3227 2.16236 10.249 4.281 7.51056C6.15215 5.09022 8.51829 3.18183 11.4312 1.7688C11.4484 1.78673 11.4664 1.82192 11.5015 1.83918C11.5546 1.85711 11.5719 1.87438 11.5898 1.87438C11.7842 5.47867 11.7842 9.08296 11.5898 12.7045C10.0716 12.9874 8.95955 13.0757 8.25289 12.8991C8.05848 12.581 7.97023 11.9449 8.05848 11.0086C8.12948 10.0371 8.09364 9.43622 7.97023 9.15334C7.38765 9.3479 6.75199 10.0544 6.04599 11.3087C4.42168 14.1534 3.89219 17.5279 4.50993 21.4496C4.8981 24.1528 6.02807 26.2903 7.86406 27.8986C8.07572 27.6157 8.16398 27.0506 8.09365 26.1847C8.04057 25.0719 8.02331 24.3647 8.05848 24.0466C9.24155 23.8521 10.4067 23.8521 11.5891 24.0466L11.5898 24.0473Z" fill="#E899A5"/>
<path d="M24.4771 16.5204C24.6363 22.8099 24.6363 29.1175 24.4771 35.425C22.9941 36.0432 21.2112 36.326 19.1098 36.344C16.9732 36.344 15.2082 36.0611 13.8135 35.425C13.566 32.9336 13.5488 29.0643 13.7253 23.8173C14.3782 23.5171 15.5261 23.4813 17.1676 23.711C17.238 23.8704 17.238 25.5311 17.1676 28.6931C17.1145 31.0962 17.1497 32.4209 17.2738 32.6507C17.4855 33.0039 17.9977 33.1985 18.845 33.1806C19.551 33.1806 20.1694 33.0743 20.7341 32.8446C21.034 28.9754 21.0871 24.7349 20.8934 20.1771C20.2046 19.9653 19.0574 19.9301 17.4151 19.9653C15.6495 20.0005 14.4492 19.9653 13.8135 19.877C13.637 10.1418 13.6018 3.7639 13.7253 0.760548C15.1379 0.230661 16.9387 -0.0170215 19.0925 0.000906979C21.1581 0.0188355 22.941 0.283783 24.4771 0.760548C24.6363 4.7181 24.6363 8.65772 24.4771 12.5628C23.365 12.7746 22.235 12.7746 21.105 12.5628C21.0168 11.4851 20.9816 10.019 20.9816 8.16369C20.9995 5.65503 21.0168 4.15302 21.0168 3.64106C20.681 3.35819 20.0984 3.18156 19.2863 3.16429C18.4741 3.14703 17.8385 3.21741 17.3621 3.42923C17.2559 4.825 17.2207 6.92729 17.2386 9.68363C17.2565 13.3058 17.2738 15.4081 17.2738 16.0263C17.662 16.203 19.269 16.3092 22.0758 16.4148L24.4771 16.521V16.5204Z" fill="#E899A5"/>
<path d="M30.6037 32.5982C28.9621 33.8704 27.6377 34.6473 26.5608 34.8771V2.2977C26.5608 2.15626 26.6491 2.05068 26.7552 1.99756C31.5923 4.09984 34.7879 7.70413 36.3419 12.8277C34.8237 12.9864 33.7116 13.0395 33.005 12.9339C32.7402 12.7042 32.3693 12.0329 31.8398 10.9552C31.4337 10.0893 30.9573 9.52421 30.4099 9.27653C30.0742 13.7467 30.0218 19.948 30.1983 27.8983C30.8691 27.5981 31.6282 26.5377 32.5113 24.7183C33.2704 23.1459 33.6944 21.768 33.7296 20.6193C33.7116 20.4075 33.4821 20.3012 33.0587 20.3012C32.5113 20.3012 32.2114 20.2833 32.1404 20.2308C31.946 19.1179 31.946 17.9871 32.1404 16.8742C33.853 16.6976 35.5828 16.6976 37.2781 16.8742C37.7193 23.4287 35.4952 28.6586 30.605 32.5982H30.6037Z" fill="#E899A5"/>
<path d="M4.61132 48.7781C3.861 48.7781 3.19926 48.6166 2.62611 48.2935C2.05295 47.9705 1.59963 47.5328 1.26616 46.9805C0.943105 46.4282 0.781579 45.8081 0.781579 45.1203C0.781579 44.4013 0.953526 43.7604 1.29742 43.1976C1.64132 42.6245 2.10505 42.1712 2.68863 41.8377C3.27221 41.4938 3.92874 41.3219 4.65821 41.3219C5.13758 41.3219 5.58047 41.3948 5.98689 41.5407C6.40374 41.6866 6.77889 41.895 7.11237 42.166L6.50274 42.8069C6.25263 42.5567 5.96084 42.364 5.62737 42.2285C5.30432 42.093 4.95521 42.0253 4.58005 42.0253C4.059 42.0253 3.58484 42.1555 3.15758 42.4161C2.73032 42.6662 2.39163 43.0153 2.14153 43.4634C1.90184 43.9115 1.782 44.4377 1.782 45.0422C1.782 45.6257 1.90184 46.1468 2.14153 46.6053C2.39163 47.0534 2.73553 47.4077 3.17321 47.6683C3.62132 47.9184 4.13716 48.0434 4.72074 48.0434C5.12716 48.0434 5.49189 47.9861 5.81495 47.8715C6.14842 47.7464 6.44021 47.5745 6.69032 47.3556L7.15926 47.9653C6.81537 48.2258 6.42979 48.429 6.00253 48.5749C5.57526 48.7104 5.11153 48.7781 4.61132 48.7781ZM10.9923 48.6843V41.4156H11.9302V48.6843H10.9923ZM8.05356 42.166V41.4156H14.8846V42.166H8.05356ZM17.9226 48.8094C17.7246 48.8094 17.5266 48.7833 17.3286 48.7312C17.1306 48.6895 16.9326 48.627 16.7346 48.5436L16.9691 48.0122C17.1149 48.0539 17.24 48.0851 17.3442 48.106C17.4484 48.1268 17.5474 48.1372 17.6412 48.1372C18.0893 48.1372 18.428 47.9861 18.6573 47.6839C18.8865 47.3713 19.121 46.944 19.3607 46.4021L21.6116 41.4156H22.6277L20.0328 46.7304C19.8557 47.1055 19.6785 47.4546 19.5014 47.7777C19.3242 48.0903 19.1106 48.3404 18.8605 48.528C18.6208 48.7156 18.3082 48.8094 17.9226 48.8094ZM19.0793 47.4338L15.8592 41.4156H16.8753L19.5639 46.8242L19.0793 47.4338ZM24.0702 48.6843C24.4141 48.0591 24.6746 47.3609 24.8518 46.5897C25.0393 45.8185 25.18 45.0005 25.2738 44.1355C25.3676 43.2602 25.4458 42.3535 25.5083 41.4156H26.3055C26.243 42.3535 26.1648 43.2602 26.071 44.1355C25.9877 45.0005 25.8574 45.8185 25.6802 46.5897C25.5135 47.3609 25.2686 48.0591 24.9456 48.6843H24.0702ZM23.2886 51.3417L23.1792 47.9965H24.1171L24.0077 51.3417H23.2886ZM23.5075 48.6843L23.3824 47.9965H31.5265L31.1357 48.6843H23.5075ZM30.7136 51.3417L30.6198 47.9965H31.5265L31.417 51.3417H30.7136ZM29.2911 48.6843V41.4156H30.1978V48.6843H29.2911ZM25.9616 42.1191V41.4156H29.7132V42.1191H25.9616ZM33.7812 48.6843V48.231L38.9396 41.4156H39.5023V41.9002L34.3283 48.6843H33.7812ZM33.3279 48.6843V41.4156H34.2032L34.1563 48.6843H33.3279ZM39.0334 48.6843L39.0803 41.4156H39.9088V48.6843H39.0334ZM47.0114 48.6843V42.1034H45.5107C44.9271 42.1034 44.4738 42.2337 44.1508 42.4942C43.8277 42.7443 43.6662 43.083 43.6662 43.5103C43.6662 43.9792 43.8538 44.3387 44.2289 44.5889C44.6041 44.839 45.0939 44.964 45.6983 44.964C45.9797 44.964 46.261 44.9536 46.5424 44.9327C46.8342 44.9015 47.1208 44.8546 47.4021 44.7921V45.4642C47.0999 45.5163 46.7925 45.558 46.4799 45.5893C46.1777 45.6101 45.8755 45.6205 45.5733 45.6205C45.0105 45.6205 44.5103 45.5424 44.0726 45.3861C43.6454 45.2297 43.3119 45.0057 43.0722 44.7139C42.8325 44.4117 42.7127 44.047 42.7127 43.6197C42.7127 43.1507 42.8273 42.7547 43.0566 42.4317C43.2858 42.0982 43.6193 41.8481 44.057 41.6814C44.4947 41.5042 45.0261 41.4156 45.6514 41.4156H47.9024V48.6843H47.0114ZM42.2125 48.6843L44.5885 45.1672L45.2137 45.4642L43.3067 48.6843H42.2125ZM54.6686 48.6843V41.4156H57.5292C58.2378 41.4156 58.8006 41.572 59.2174 41.8846C59.6343 42.1972 59.8427 42.6245 59.8427 43.1664C59.8427 43.552 59.7385 43.8959 59.5301 44.1981C59.3321 44.4899 59.0559 44.7243 58.7016 44.9015C58.3473 45.0786 57.9252 45.1672 57.4354 45.1672L57.5917 44.6045C58.1753 44.6045 58.6755 44.6879 59.0924 44.8546C59.5196 45.0109 59.8479 45.2402 60.0772 45.5424C60.3064 45.8446 60.4211 46.2041 60.4211 46.621C60.4211 47.0378 60.3116 47.4025 60.0928 47.7152C59.8844 48.0278 59.577 48.2675 59.1705 48.4342C58.7745 48.601 58.2847 48.6843 57.7012 48.6843H54.6686ZM55.5127 47.9653H57.7324C58.3368 47.9653 58.785 47.8506 59.0767 47.6214C59.379 47.3817 59.5301 47.0482 59.5301 46.621C59.5301 46.1833 59.3529 45.8446 58.9986 45.6049C58.6547 45.3652 58.118 45.2454 57.3885 45.2454H55.2783V44.542H57.5292C57.9982 44.542 58.3577 44.4377 58.6078 44.2293C58.8683 44.0105 58.9986 43.7031 58.9986 43.3071C58.9986 42.9632 58.8683 42.6818 58.6078 42.463C58.3577 42.2441 57.9617 42.1347 57.4198 42.1347H55.5127V47.9653ZM62.6065 48.6843V41.4156H63.5132V48.6843H62.6065ZM62.9192 48.6843V47.9496H67.9525V48.6843H62.9192ZM62.9192 45.4017V44.6826H67.0147V45.4017H62.9192ZM62.9192 42.1503V41.4156H67.6399V42.1503H62.9192ZM70.117 48.6843V41.4156H75.3536V42.1347H70.9611V47.9653H73.0245C73.681 47.9653 74.1708 47.8506 74.4939 47.6214C74.8169 47.3921 74.9785 47.0326 74.9785 46.5428C74.9785 46.0843 74.8117 45.7404 74.4782 45.5111C74.1552 45.2819 73.5977 45.1672 72.8057 45.1672C72.5764 45.1672 72.2742 45.1776 71.899 45.1985C71.5343 45.2193 71.1435 45.2662 70.7267 45.3392V44.7452C71.1956 44.6305 71.6489 44.5576 72.0866 44.5263C72.5347 44.4846 72.9203 44.4638 73.2434 44.4638C74.1187 44.4638 74.7752 44.6305 75.2129 44.964C75.6506 45.2871 75.8695 45.7716 75.8695 46.4177C75.8695 46.8763 75.7548 47.2775 75.5256 47.6214C75.2963 47.9653 74.9628 48.231 74.5251 48.4186C74.0979 48.5957 73.5664 48.6843 72.9307 48.6843H70.117ZM77.4784 44.839V44.1355H81.4957V44.839H77.4784ZM83.6351 48.6843C83.9789 48.0591 84.2395 47.3609 84.4166 46.5897C84.6042 45.8185 84.7449 45.0005 84.8387 44.1355C84.9325 43.2602 85.0106 42.3535 85.0732 41.4156H85.8704C85.8078 42.3535 85.7297 43.2602 85.6359 44.1355C85.5525 45.0005 85.4223 45.8185 85.2451 46.5897C85.0784 47.3609 84.8335 48.0591 84.5104 48.6843H83.6351ZM82.8535 51.3417L82.7441 47.9965H83.6819L83.5725 51.3417H82.8535ZM83.0723 48.6843L82.9473 47.9965H91.0913L90.7005 48.6843H83.0723ZM90.2785 51.3417L90.1847 47.9965H91.0913L90.9819 51.3417H90.2785ZM88.856 48.6843V41.4156H89.7626V48.6843H88.856ZM85.5265 42.1191V41.4156H89.2781V42.1191H85.5265ZM93.346 48.6843V48.231L98.5045 41.4156H99.0672V41.9002L93.8932 48.6843H93.346ZM92.8927 48.6843V41.4156H93.7681L93.7212 48.6843H92.8927ZM98.5983 48.6843L98.6452 41.4156H99.4736V48.6843H98.5983ZM104.513 48.7625C103.794 48.7625 103.184 48.6166 102.684 48.3248C102.194 48.0226 101.861 47.6318 101.684 47.1524L102.481 46.8085C102.585 47.1107 102.741 47.3556 102.95 47.5432C103.158 47.7308 103.403 47.8715 103.684 47.9653C103.966 48.0486 104.263 48.0903 104.575 48.0903C105.149 48.0903 105.602 47.9549 105.935 47.6839C106.279 47.413 106.451 47.0586 106.451 46.621C106.451 46.2041 106.3 45.8706 105.998 45.6205C105.696 45.3704 105.164 45.2454 104.403 45.2454H103.684V44.5889H104.403C104.956 44.5889 105.373 44.469 105.654 44.2293C105.946 43.9792 106.092 43.6457 106.092 43.2289C106.092 42.8642 105.946 42.5724 105.654 42.3535C105.362 42.1243 104.977 42.0096 104.497 42.0096C103.945 42.0096 103.502 42.1295 103.169 42.3692C102.845 42.6089 102.632 42.9423 102.528 43.3696L101.746 43.1976C101.882 42.7808 102.08 42.4369 102.34 42.166C102.601 41.8846 102.913 41.6762 103.278 41.5407C103.643 41.4052 104.049 41.3375 104.497 41.3375C104.987 41.3375 105.414 41.4104 105.779 41.5563C106.154 41.7022 106.446 41.9106 106.654 42.1816C106.863 42.4421 106.967 42.76 106.967 43.1351C106.967 43.5415 106.852 43.8906 106.623 44.1824C106.404 44.4638 106.107 44.6826 105.732 44.839C105.357 44.9849 104.935 45.0578 104.466 45.0578V44.7139C105.081 44.7139 105.597 44.7869 106.013 44.9327C106.441 45.0786 106.759 45.2923 106.967 45.5736C107.186 45.855 107.295 46.2093 107.295 46.6366C107.295 47.0743 107.17 47.4546 106.92 47.7777C106.68 48.1007 106.352 48.3456 105.935 48.5124C105.518 48.6791 105.044 48.7625 104.513 48.7625ZM108.471 48.6843L111.613 41.4156H112.676L115.833 48.6843H114.88L111.988 41.8064H112.269L109.44 48.6843H108.471ZM110.034 46.0426L110.284 45.3392H113.848L114.176 46.0426H110.034ZM118.244 48.6843V48.231L123.402 41.4156H123.965V41.9002L118.791 48.6843H118.244ZM117.79 48.6843V41.4156H118.666L118.619 48.6843H117.79ZM123.496 48.6843L123.543 41.4156H124.371V48.6843H123.496ZM120.948 40.4777C120.521 40.4777 120.109 40.3683 119.713 40.1495C119.327 39.9306 119.025 39.6076 118.806 39.1803L119.447 38.6176C119.677 39.0344 119.942 39.3262 120.244 39.493C120.557 39.6597 120.87 39.7431 121.182 39.7431C121.526 39.7431 121.844 39.6493 122.136 39.4617C122.438 39.2741 122.683 38.9875 122.871 38.602L123.308 38.8677C123.11 39.4096 122.787 39.816 122.339 40.087C121.901 40.3475 121.438 40.4777 120.948 40.4777ZM132.943 48.6843V41.4156H133.865V48.6843H132.943ZM127.316 48.6843V41.4156H128.238V48.6843H127.316ZM127.628 45.261V44.5107H133.553V45.261H127.628ZM135.826 48.6843L138.968 41.4156H140.031L143.188 48.6843H142.235L139.343 41.8064H139.624L136.795 48.6843H135.826ZM137.389 46.0426L137.639 45.3392H141.203L141.531 46.0426H137.389Z" fill="#E899A5"/>
<path d="M0 50.6383H76.5104V51.4199H0V50.6383ZM82.4627 50.6383H143.673V51.4199H82.4627V50.6383Z" fill="#E899A5"/>
<path d="M76.5092 50.6383H82.4649V51.4199H76.5092V50.6383Z" fill="#E899A5"/>
<a href="http://creativesight.group">
<rect fill="black" fill-opacity="0" y="0.00339508" width="143.673" height="20.9932"/>
</a>
</svg>
