<svg width="314" height="140" viewBox="0 0 314 140" fill="none" xmlns="http://www.w3.org/2000/svg">
<g clip-path="url(#clip0_237_2815)">
<path d="M52.3418 133.381C52.1152 133.718 51.8453 134.035 51.5254 134.331C51.2055 134.631 50.8356 134.895 50.4158 135.122C49.9959 135.348 49.5328 135.528 49.0263 135.662C48.5198 135.795 47.9633 135.862 47.3635 135.862C46.3605 135.862 45.4342 135.689 44.5845 135.342C43.7315 134.995 43.0017 134.511 42.3853 133.898C41.7721 133.284 41.2923 132.554 40.9491 131.707C40.6059 130.863 40.4326 129.936 40.4326 128.929C40.4326 127.922 40.6092 126.999 40.9591 126.152C41.309 125.308 41.7955 124.578 42.4153 123.961C43.035 123.347 43.7681 122.864 44.6145 122.517C45.4609 122.17 46.3772 121.994 47.3669 121.994C47.8567 121.994 48.3332 122.044 48.803 122.144C49.2729 122.244 49.7127 122.387 50.1259 122.571C50.5391 122.754 50.9156 122.974 51.2522 123.231C51.5887 123.488 51.8719 123.778 52.0985 124.101L50.9723 124.921C50.8356 124.711 50.649 124.498 50.4191 124.288C50.1859 124.078 49.916 123.891 49.6027 123.728C49.2895 123.568 48.9496 123.434 48.5798 123.337C48.2099 123.237 47.8134 123.187 47.3869 123.187C46.5238 123.187 45.7508 123.341 45.0677 123.651C44.3846 123.961 43.8048 124.378 43.3316 124.905C42.8551 125.432 42.4919 126.042 42.242 126.735C41.9921 127.429 41.8654 128.159 41.8654 128.926C41.8654 129.693 41.9921 130.423 42.252 131.117C42.5086 131.81 42.8751 132.421 43.3516 132.948C43.8281 133.474 44.4079 133.891 45.0877 134.201C45.7707 134.511 46.5371 134.665 47.3902 134.665C48.1532 134.665 48.8797 134.511 49.5694 134.198C50.2592 133.888 50.8323 133.391 51.2988 132.707L52.3518 133.378L52.3418 133.381Z" fill="#E7B588"/>
<path d="M53.0916 126.802H60.8122V127.866H57.4867V135.525H56.2105V127.866H53.0916V126.802Z" fill="#E7B588"/>
<path d="M65.7139 134.165H65.7505L68.4729 126.802H69.8624L65.4873 137.779C65.224 138.449 64.8875 138.986 64.481 139.39C64.0744 139.793 63.488 139.997 62.7249 139.997C62.335 139.997 61.9552 139.96 61.5786 139.883L61.7086 138.73C62.0085 138.83 62.3217 138.88 62.6483 138.88C63.0881 138.88 63.4313 138.746 63.6812 138.48C63.9312 138.213 64.1511 137.829 64.3377 137.332L65.0508 135.505L61.2954 126.802H62.7249L65.7105 134.165H65.7139Z" fill="#E7B588"/>
<path d="M71.4251 138.116H70.1655V134.425H71.575L74.8072 126.802H75.9335L78.9191 134.425H80.3853V138.116H79.1457V135.525H71.4251V138.116ZM72.8712 134.425H77.6429L75.3337 128.329L72.8746 134.425H72.8712Z" fill="#E7B588"/>
<path d="M88.7057 128.426L83.3143 135.525H81.998V126.802H83.3143V133.641L88.7057 126.802H90.0219V135.525H88.7057V128.426Z" fill="#E7B588"/>
<path d="M97.3461 131.78C96.3698 131.78 95.6234 132.114 95.1102 132.777C94.5971 133.441 94.2905 134.358 94.1906 135.525H92.7644C92.8011 135.042 92.8844 134.575 93.0076 134.128C93.1343 133.681 93.3042 133.274 93.5241 132.908C93.7441 132.541 94.0073 132.224 94.3139 131.957C94.6204 131.69 94.9736 131.487 95.3735 131.35V131.294C94.7337 131.23 94.2072 131.044 93.794 130.727C93.3809 130.41 93.1743 129.933 93.1743 129.3C93.1743 128.506 93.4841 127.889 94.1039 127.456C94.7237 127.022 95.6301 126.802 96.8196 126.802H100.145V135.525H98.8689V131.78H97.3461ZM94.5271 129.303C94.5271 129.6 94.5971 129.843 94.7337 130.03C94.8703 130.217 95.0569 130.357 95.2868 130.45C95.5168 130.543 95.7833 130.607 96.0866 130.637C96.3865 130.667 96.693 130.683 97.0062 130.683H98.8656V127.906H96.9863C96.6497 127.906 96.3298 127.919 96.0266 127.942C95.7267 127.969 95.4668 128.026 95.2469 128.119C95.0269 128.213 94.8537 128.353 94.7204 128.539C94.5871 128.726 94.5238 128.979 94.5238 129.303H94.5271Z" fill="#E7B588"/>
<path d="M108.069 135.525V126.802H109.345V134.388H114.06V126.802H115.336V134.388H116.802V138.116H115.526V135.525H108.069Z" fill="#E7B588"/>
<path d="M122.817 135.525H118.799V126.802H122.594C123.71 126.802 124.537 127.015 125.073 127.446C125.613 127.876 125.879 128.443 125.879 129.15C125.879 129.473 125.829 129.743 125.729 129.96C125.63 130.177 125.49 130.357 125.306 130.5C125.126 130.643 124.913 130.757 124.677 130.843C124.44 130.93 124.187 131.01 123.927 131.087C124.253 131.114 124.56 131.167 124.846 131.254C125.133 131.34 125.386 131.467 125.606 131.637C125.826 131.804 125.996 132.017 126.123 132.271C126.249 132.524 126.309 132.834 126.309 133.194C126.309 133.901 126.016 134.468 125.426 134.892C124.836 135.315 123.967 135.525 122.817 135.525ZM122.517 130.66C123.144 130.66 123.634 130.563 123.99 130.37C124.347 130.177 124.527 129.793 124.527 129.216C124.527 128.893 124.457 128.636 124.32 128.446C124.183 128.256 123.987 128.116 123.737 128.022C123.487 127.929 123.187 127.869 122.834 127.846C122.481 127.822 122.094 127.809 121.668 127.809H120.071V130.66H122.514H122.517ZM120.075 134.518H121.708C122.171 134.518 122.597 134.508 122.984 134.491C123.37 134.471 123.71 134.415 123.997 134.321C124.283 134.228 124.51 134.081 124.673 133.881C124.836 133.681 124.916 133.401 124.916 133.038C124.916 132.437 124.693 132.044 124.25 131.857C123.807 131.67 123.207 131.577 122.457 131.577H120.071V134.521L120.075 134.518Z" fill="#E7B588"/>
<path d="M137.035 130.904V131.184C137.035 131.284 137.029 131.387 137.015 131.5H129.728C129.741 131.934 129.828 132.344 129.991 132.731C130.154 133.118 130.381 133.451 130.668 133.738C130.958 134.025 131.294 134.251 131.681 134.418C132.067 134.585 132.487 134.668 132.94 134.668C133.603 134.668 134.176 134.515 134.66 134.211C135.143 133.908 135.509 133.558 135.759 133.158L136.719 133.905C136.192 134.565 135.613 135.035 134.983 135.322C134.35 135.609 133.67 135.752 132.944 135.752C132.294 135.752 131.687 135.639 131.131 135.409C130.574 135.178 130.095 134.858 129.695 134.448C129.295 134.038 128.978 133.555 128.745 132.994C128.512 132.434 128.398 131.827 128.398 131.167C128.398 130.507 128.512 129.9 128.735 129.34C128.958 128.779 129.275 128.296 129.675 127.886C130.075 127.476 130.544 127.156 131.084 126.925C131.624 126.695 132.204 126.582 132.83 126.582C133.52 126.582 134.126 126.699 134.653 126.925C135.179 127.156 135.616 127.466 135.969 127.856C136.322 128.246 136.586 128.703 136.769 129.226C136.949 129.75 137.042 130.307 137.042 130.904H137.035ZM135.739 130.493C135.703 129.673 135.436 128.993 134.939 128.453C134.446 127.913 133.74 127.642 132.827 127.642C132.4 127.642 132.007 127.719 131.644 127.876C131.281 128.033 130.961 128.243 130.684 128.509C130.408 128.776 130.191 129.08 130.028 129.423C129.865 129.767 129.771 130.123 129.745 130.493H135.736H135.739Z" fill="#E7B588"/>
<path d="M138.275 126.802H145.996V127.866H142.67V135.525H141.394V127.866H138.275V126.802Z" fill="#E7B588"/>
<path d="M156.605 131.164C156.605 131.82 156.489 132.431 156.259 132.991C156.029 133.551 155.706 134.035 155.292 134.445C154.879 134.855 154.383 135.175 153.81 135.405C153.233 135.635 152.6 135.749 151.914 135.749C151.227 135.749 150.611 135.635 150.034 135.405C149.458 135.175 148.965 134.855 148.551 134.445C148.138 134.035 147.815 133.551 147.585 132.991C147.355 132.431 147.239 131.824 147.239 131.164C147.239 130.503 147.355 129.896 147.585 129.336C147.815 128.776 148.138 128.293 148.551 127.882C148.965 127.472 149.458 127.152 150.034 126.922C150.611 126.692 151.237 126.579 151.914 126.579C152.59 126.579 153.233 126.695 153.81 126.922C154.386 127.152 154.879 127.472 155.292 127.882C155.706 128.293 156.029 128.776 156.259 129.336C156.489 129.896 156.605 130.503 156.605 131.164ZM155.252 131.164C155.252 130.68 155.172 130.223 155.016 129.793C154.859 129.363 154.636 128.993 154.349 128.676C154.063 128.359 153.71 128.109 153.296 127.922C152.883 127.736 152.42 127.642 151.907 127.642C151.394 127.642 150.934 127.736 150.527 127.922C150.121 128.109 149.774 128.359 149.484 128.676C149.198 128.993 148.975 129.366 148.818 129.793C148.661 130.223 148.581 130.68 148.581 131.164C148.581 131.647 148.658 132.104 148.818 132.534C148.975 132.964 149.198 133.334 149.484 133.651C149.774 133.968 150.121 134.218 150.527 134.398C150.934 134.578 151.394 134.668 151.907 134.668C152.42 134.668 152.883 134.578 153.296 134.398C153.71 134.218 154.059 133.968 154.349 133.651C154.639 133.334 154.859 132.961 155.016 132.534C155.172 132.104 155.252 131.65 155.252 131.164Z" fill="#E7B588"/>
<path d="M163.293 135.525H159.274V126.802H163.07C164.183 126.802 165.009 127.015 165.549 127.446C166.089 127.876 166.355 128.443 166.355 129.15C166.355 129.473 166.305 129.743 166.205 129.96C166.105 130.177 165.965 130.357 165.782 130.5C165.602 130.643 165.392 130.757 165.152 130.843C164.912 130.93 164.663 131.01 164.403 131.087C164.729 131.114 165.036 131.167 165.322 131.254C165.612 131.34 165.862 131.467 166.082 131.637C166.302 131.804 166.472 132.017 166.599 132.271C166.725 132.524 166.785 132.834 166.785 133.194C166.785 133.901 166.492 134.468 165.902 134.892C165.312 135.315 164.443 135.525 163.29 135.525H163.293ZM162.993 130.66C163.62 130.66 164.109 130.563 164.466 130.37C164.822 130.177 165.002 129.793 165.002 129.216C165.002 128.893 164.932 128.636 164.796 128.446C164.659 128.259 164.463 128.116 164.213 128.022C163.963 127.929 163.663 127.869 163.31 127.846C162.96 127.819 162.57 127.809 162.147 127.809H160.551V130.66H162.993ZM160.551 134.518H162.183C162.647 134.518 163.073 134.508 163.46 134.491C163.846 134.471 164.186 134.415 164.473 134.321C164.759 134.228 164.986 134.081 165.149 133.881C165.312 133.681 165.392 133.401 165.392 133.038C165.392 132.437 165.169 132.044 164.726 131.857C164.283 131.67 163.683 131.577 162.933 131.577H160.547V134.521L160.551 134.518Z" fill="#E7B588"/>
<path d="M180.837 128.426L175.445 135.525H174.129V126.802H175.445V133.641L180.837 126.802H182.153V135.525H180.837V128.426Z" fill="#E7B588"/>
<path d="M191.356 135.525H190.08V126.802H197.501V135.525H196.225V127.866H191.36V135.525H191.356Z" fill="#E7B588"/>
<path d="M209.537 131.164C209.537 131.82 209.42 132.431 209.19 132.991C208.957 133.551 208.637 134.035 208.224 134.445C207.811 134.855 207.317 135.175 206.741 135.405C206.164 135.635 205.531 135.749 204.845 135.749C204.159 135.749 203.542 135.635 202.966 135.405C202.389 135.175 201.896 134.855 201.483 134.445C201.07 134.035 200.746 133.551 200.516 132.991C200.283 132.431 200.17 131.824 200.17 131.164C200.17 130.503 200.287 129.896 200.516 129.336C200.746 128.776 201.07 128.293 201.483 127.882C201.896 127.472 202.389 127.152 202.966 126.922C203.542 126.692 204.169 126.579 204.845 126.579C205.521 126.579 206.164 126.695 206.741 126.922C207.317 127.152 207.811 127.472 208.224 127.882C208.637 128.293 208.96 128.776 209.19 129.336C209.42 129.896 209.537 130.503 209.537 131.164ZM208.184 131.164C208.184 130.68 208.107 130.223 207.951 129.793C207.794 129.363 207.571 128.993 207.284 128.676C206.994 128.359 206.644 128.109 206.231 127.922C205.818 127.736 205.355 127.642 204.842 127.642C204.328 127.642 203.869 127.736 203.462 127.922C203.056 128.109 202.706 128.359 202.419 128.676C202.129 128.993 201.909 129.366 201.753 129.793C201.596 130.223 201.519 130.68 201.519 131.164C201.519 131.647 201.596 132.104 201.753 132.534C201.909 132.964 202.133 133.334 202.419 133.651C202.706 133.968 203.056 134.218 203.462 134.398C203.869 134.578 204.328 134.668 204.842 134.668C205.355 134.668 205.818 134.578 206.231 134.398C206.644 134.218 206.994 133.968 207.284 133.651C207.571 133.334 207.794 132.961 207.951 132.534C208.107 132.104 208.184 131.65 208.184 131.164Z" fill="#E7B588"/>
<path d="M211.846 138.116H210.586V134.425H211.996L215.228 126.802H216.354L219.34 134.425H220.806V138.116H219.567V135.525H211.846V138.116ZM213.292 134.425H218.064L215.755 128.329L213.295 134.425H213.292Z" fill="#E7B588"/>
<path d="M228.04 129.88C228.04 129.126 227.84 128.566 227.441 128.196C227.041 127.826 226.458 127.642 225.695 127.642C225.168 127.642 224.682 127.736 224.228 127.922C223.779 128.109 223.395 128.356 223.082 128.669L222.369 127.832C222.732 127.472 223.212 127.175 223.805 126.939C224.402 126.702 225.071 126.585 225.824 126.585C226.301 126.585 226.744 126.652 227.157 126.782C227.571 126.912 227.934 127.109 228.247 127.369C228.56 127.629 228.803 127.959 228.98 128.356C229.157 128.753 229.243 129.219 229.243 129.753V133.574C229.243 133.911 229.257 134.258 229.28 134.618C229.303 134.978 229.343 135.282 229.393 135.532H228.247C228.21 135.322 228.177 135.092 228.154 134.841C228.127 134.595 228.117 134.351 228.117 134.115H228.08C227.68 134.698 227.227 135.118 226.717 135.372C226.211 135.625 225.601 135.755 224.885 135.755C224.545 135.755 224.198 135.708 223.842 135.615C223.485 135.522 223.159 135.368 222.866 135.158C222.572 134.948 222.326 134.671 222.132 134.335C221.939 133.998 221.843 133.588 221.843 133.101C221.843 132.427 222.016 131.894 222.359 131.504C222.702 131.11 223.162 130.817 223.739 130.627C224.315 130.433 224.975 130.31 225.721 130.253C226.468 130.196 227.241 130.17 228.04 130.17V129.893V129.88ZM227.664 131.164C227.137 131.164 226.608 131.187 226.078 131.23C225.545 131.274 225.065 131.36 224.632 131.49C224.198 131.62 223.845 131.81 223.572 132.06C223.295 132.311 223.159 132.637 223.159 133.048C223.159 133.358 223.219 133.618 223.339 133.831C223.459 134.041 223.619 134.215 223.819 134.345C224.018 134.475 224.242 134.568 224.485 134.625C224.728 134.681 224.975 134.708 225.228 134.708C225.678 134.708 226.081 134.631 226.431 134.475C226.781 134.321 227.077 134.108 227.314 133.841C227.551 133.574 227.734 133.268 227.857 132.917C227.984 132.571 228.044 132.204 228.044 131.817V131.164H227.667H227.664Z" fill="#E7B588"/>
<path d="M233.805 140H232.529V126.805H233.805V128.316H233.861C234.225 127.746 234.711 127.312 235.318 127.022C235.924 126.729 236.54 126.585 237.167 126.585C237.857 126.585 238.48 126.705 239.036 126.939C239.593 127.175 240.069 127.499 240.462 127.909C240.856 128.319 241.162 128.803 241.382 129.363C241.602 129.923 241.712 130.523 241.712 131.17C241.712 131.817 241.602 132.417 241.382 132.977C241.162 133.538 240.856 134.021 240.462 134.431C240.069 134.841 239.593 135.165 239.036 135.402C238.48 135.638 237.857 135.755 237.167 135.755C236.54 135.755 235.924 135.608 235.318 135.318C234.711 135.028 234.225 134.608 233.861 134.061H233.805V140.007V140ZM240.359 131.167C240.359 130.683 240.283 130.227 240.133 129.796C239.983 129.366 239.766 128.996 239.486 128.679C239.206 128.363 238.856 128.112 238.443 127.926C238.03 127.739 237.56 127.646 237.034 127.646C236.547 127.646 236.094 127.736 235.681 127.916C235.268 128.096 234.911 128.346 234.611 128.663C234.311 128.979 234.075 129.353 233.908 129.78C233.738 130.21 233.655 130.67 233.655 131.167C233.655 131.664 233.738 132.127 233.908 132.554C234.078 132.984 234.311 133.351 234.611 133.664C234.911 133.978 235.268 134.221 235.681 134.401C236.094 134.581 236.544 134.671 237.034 134.671C237.56 134.671 238.03 134.581 238.443 134.401C238.856 134.221 239.203 133.971 239.486 133.654C239.769 133.338 239.983 132.964 240.133 132.537C240.283 132.107 240.359 131.654 240.359 131.167Z" fill="#E7B588"/>
<path d="M245.657 130.383C246.157 130.383 246.627 130.42 247.067 130.493L250.222 126.802H251.649L248.23 130.753C249.269 131.077 250.076 131.627 250.652 132.404C251.229 133.181 251.685 134.221 252.025 135.525H250.599C250.422 134.755 250.202 134.111 249.933 133.594C249.663 133.081 249.326 132.664 248.92 132.347C248.513 132.031 248.04 131.807 247.5 131.677C246.96 131.547 246.347 131.474 245.661 131.464V135.525H244.385V126.802H245.661V130.38L245.657 130.383Z" fill="#E7B588"/>
<path d="M263.388 131.164C263.388 131.82 263.271 132.431 263.041 132.991C262.808 133.551 262.488 134.035 262.075 134.445C261.662 134.855 261.168 135.175 260.592 135.405C260.016 135.635 259.382 135.749 258.696 135.749C258.01 135.749 257.393 135.635 256.817 135.405C256.24 135.175 255.747 134.855 255.334 134.445C254.921 134.035 254.597 133.551 254.368 132.991C254.134 132.431 254.021 131.824 254.021 131.164C254.021 130.503 254.138 129.896 254.368 129.336C254.597 128.776 254.921 128.293 255.334 127.882C255.747 127.472 256.24 127.152 256.817 126.922C257.393 126.692 258.02 126.579 258.696 126.579C259.372 126.579 260.016 126.695 260.592 126.922C261.168 127.152 261.662 127.472 262.075 127.882C262.488 128.293 262.811 128.776 263.041 129.336C263.271 129.896 263.388 130.503 263.388 131.164ZM262.035 131.164C262.035 130.68 261.955 130.223 261.802 129.793C261.645 129.363 261.422 128.993 261.135 128.676C260.849 128.359 260.495 128.109 260.082 127.922C259.669 127.736 259.206 127.642 258.693 127.642C258.18 127.642 257.72 127.736 257.313 127.922C256.907 128.109 256.56 128.359 256.27 128.676C255.98 128.993 255.76 129.366 255.604 129.793C255.447 130.22 255.371 130.68 255.371 131.164C255.371 131.647 255.447 132.104 255.604 132.534C255.76 132.964 255.984 133.334 256.27 133.651C256.557 133.968 256.907 134.218 257.313 134.398C257.72 134.578 258.18 134.668 258.693 134.668C259.206 134.668 259.669 134.578 260.082 134.398C260.495 134.218 260.845 133.968 261.135 133.651C261.425 133.334 261.645 132.961 261.802 132.534C261.958 132.104 262.035 131.65 262.035 131.164Z" fill="#E7B588"/>
<path d="M270.075 135.525H266.057V126.802H269.852C270.965 126.802 271.795 127.015 272.331 127.446C272.871 127.876 273.138 128.443 273.138 129.15C273.138 129.473 273.088 129.743 272.988 129.96C272.888 130.177 272.748 130.357 272.565 130.5C272.385 130.643 272.175 130.757 271.935 130.843C271.695 130.93 271.448 131.01 271.185 131.087C271.512 131.114 271.818 131.167 272.105 131.254C272.391 131.34 272.645 131.467 272.864 131.637C273.084 131.804 273.254 132.017 273.381 132.271C273.508 132.524 273.568 132.834 273.568 133.194C273.568 133.901 273.274 134.468 272.685 134.892C272.095 135.315 271.225 135.525 270.072 135.525H270.075ZM269.776 130.66C270.402 130.66 270.892 130.563 271.252 130.37C271.608 130.177 271.788 129.793 271.788 129.216C271.788 128.893 271.718 128.636 271.582 128.446C271.445 128.259 271.248 128.116 270.998 128.022C270.749 127.929 270.449 127.869 270.095 127.846C269.746 127.819 269.356 127.809 268.929 127.809H267.333V130.66H269.776ZM267.333 134.518H268.966C269.429 134.518 269.856 134.508 270.242 134.491C270.629 134.471 270.968 134.415 271.255 134.321C271.542 134.228 271.768 134.081 271.931 133.881C272.095 133.681 272.175 133.401 272.175 133.038C272.175 132.437 271.951 132.044 271.508 131.857C271.065 131.67 270.465 131.577 269.716 131.577H267.33V134.521L267.333 134.518Z" fill="#E7B588"/>
<path d="M4.53508 116.385H0L17.5705 76.8442H21.5891L39.043 116.385H34.4513L19.4665 81.8727L4.53508 116.385Z" fill="#E7B588"/>
<path d="M65.3939 95.1074L48.9163 116.385H44.8977V90.249H48.9163V110.746L65.3939 90.249H69.4124V116.385H65.3939V95.1074Z" fill="#E7B588"/>
<path d="M76.4199 90.249H100.018V93.4335H89.8552V116.388H85.9499V93.4335H76.4199V90.249Z" fill="#E7B588"/>
<path d="M102.657 90.249H126.256V93.4335H116.093V116.388H112.187V93.4335H102.657V90.249Z" fill="#E7B588"/>
<path d="M151.747 116.385L142.847 94.8273L133.546 116.385H129.471L141.24 90.249H144.686L155.709 116.385H151.747Z" fill="#E7B588"/>
<path d="M219.783 96.6146C219.783 99.629 219.247 102.403 218.177 104.938C217.104 107.468 215.621 109.656 213.728 111.5C211.832 113.344 209.593 114.784 207.011 115.828C204.428 116.872 201.623 117.392 198.6 117.392C195.578 117.392 192.773 116.872 190.19 115.828C187.608 114.788 185.368 113.344 183.472 111.5C181.576 109.656 180.094 107.472 179.024 104.938C177.951 102.407 177.415 99.6323 177.415 96.6146C177.415 93.5968 177.951 90.8258 179.024 88.2916C180.094 85.7607 181.58 83.5733 183.472 81.7293C185.368 79.8853 187.608 78.4448 190.19 77.4011C192.773 76.3607 195.578 75.8372 198.6 75.8372C201.623 75.8372 204.428 76.3607 207.011 77.4011C209.593 78.4448 211.832 79.8853 213.728 81.7293C215.624 83.5733 217.107 85.7607 218.177 88.2916C219.247 90.8225 219.783 93.5968 219.783 96.6146ZM215.418 96.6413C215.418 94.3371 215.035 92.143 214.268 90.0622C213.502 87.9815 212.392 86.1508 210.939 84.5703C209.483 82.9897 207.714 81.7359 205.628 80.8056C203.542 79.8753 201.196 79.4118 198.594 79.4118C195.991 79.4118 193.646 79.8786 191.56 80.8056C189.474 81.7359 187.704 82.9897 186.248 84.5703C184.792 86.1508 183.682 87.9815 182.919 90.0622C182.153 92.143 181.77 94.3371 181.77 96.6413C181.77 98.9454 182.153 101.14 182.919 103.22C183.686 105.301 184.795 107.125 186.248 108.686C187.704 110.246 189.474 111.493 191.56 112.42C193.646 113.351 195.988 113.814 198.594 113.814C201.2 113.814 203.539 113.351 205.628 112.42C207.714 111.49 209.483 110.246 210.939 108.686C212.392 107.125 213.505 105.304 214.268 103.22C215.035 101.14 215.418 98.9454 215.418 96.6413Z" fill="#E7B588"/>
<path d="M247.916 116.385L239.016 94.8273L229.716 116.385H225.641L237.41 90.249H240.856L251.878 116.385H247.916Z" fill="#E7B588"/>
<path d="M277.946 116.385L269.046 94.8273L259.746 116.385H255.67L267.44 90.249H270.885L281.908 116.385H277.946Z" fill="#E7B588"/>
<path d="M309.982 95.1074L293.504 116.385H289.485V90.249H293.504V110.746L309.982 90.249H314V116.385H309.982V95.1074Z" fill="#E7B588"/>
<path d="M170.314 3.37111C170.127 1.7672 170.57 0.690153 171.72 0.263334C172.933 -0.190161 174.152 -0.0401075 175.299 0.596787C176.878 1.4771 177.864 3.3511 177.578 4.92166C177.271 6.59893 176.052 7.42923 174.362 7.11245C174.306 7.10244 174.249 7.11245 174.126 7.11245C174.182 7.27917 174.212 7.41922 174.272 7.54593C175.302 9.71338 174.672 12.3043 172.783 13.8048C172.203 14.265 171.607 14.7452 171.16 15.3254C170.477 16.219 170.524 17.3461 170.637 18.3798C170.727 19.1934 170.97 20.0671 171.407 20.7473C172.443 22.3712 172.4 23.9951 171.783 25.7091C171.09 27.6264 170.011 29.2804 168.591 30.7476C167.911 31.4511 167.395 32.3148 166.802 33.1084C166.852 33.1517 166.902 33.1951 166.948 33.2384C167.531 32.7883 168.105 32.3281 168.694 31.8913C169.674 31.1677 170.724 30.6575 171.993 30.6342C173.223 30.6108 173.446 31.3678 173.369 32.2648C173.333 32.6849 173.173 33.1117 172.979 33.4919C172.553 34.3355 172.346 35.2192 172.336 36.1595C172.33 36.6897 172.323 37.2265 172.23 37.7467C172.173 38.0802 172.016 38.4303 171.807 38.6904C171.363 39.2439 170.804 39.2139 170.29 38.7304C169.547 38.0302 168.794 37.3366 168.008 36.6863C167.498 36.2662 167.148 36.2662 166.722 36.553C167.162 37.0298 167.668 37.4499 168.015 37.9801C169.131 39.6874 170.217 41.4214 171.257 43.1753C172.053 44.5225 172.54 45.126 173.819 45.9697C172.903 46.2631 172.26 46.82 171.88 47.9137C171.207 47.0234 170.617 46.2398 169.937 45.3394C170.054 45.7663 170.107 46.0997 170.23 46.4031C172.183 51.1682 174.149 55.9232 176.092 60.6916C176.295 61.1918 176.312 61.772 176.498 62.2821C176.678 62.769 176.971 63.2125 177.248 63.736C176.565 64.3696 175.689 64.7764 174.709 64.7264C173.693 64.6763 172.876 64.8297 171.996 65.4733C170.79 66.3603 169.264 66.1402 167.831 66.0001C167.465 65.9635 167.102 65.8968 166.768 65.8501C167.102 66.8905 167.525 67.8941 167.731 68.9412C168.011 70.365 168.128 71.8189 168.318 73.2594C168.594 75.3835 169.167 77.4142 170.257 79.2749C170.764 80.1385 170.954 81.0288 170.457 81.9525C170.364 82.1259 170.124 82.3293 169.951 82.3326C166.235 82.356 162.516 82.3493 158.748 82.3493C158.911 81.7158 159.368 81.2089 160.044 81.0288C160.85 80.8121 161.7 80.7688 162.52 80.6087C163.823 80.3553 165.046 79.8818 166.115 79.0915C166.755 78.6213 166.875 77.7077 166.445 76.704C165.819 75.2401 165.122 73.8096 164.492 72.3457C163.623 70.325 162.786 68.2876 161.933 66.2602C161.873 66.1169 161.8 65.9835 161.707 65.7901C160.321 66.4336 159.034 66.0335 157.715 65.5466C157.125 65.3299 156.419 65.2932 155.782 65.3466C153.043 65.57 150.311 65.9068 147.568 66.0968C145.606 66.2336 143.726 65.8934 142.154 64.5496C141.77 64.2228 141.58 63.8794 141.577 63.3459C141.544 59.3111 141.477 55.273 141.417 51.2382C141.417 51.0215 141.404 50.8047 141.387 50.588C141.341 50.0811 141.097 49.8911 140.644 50.1311C140.058 50.4413 139.448 50.778 138.995 51.2449C138.305 51.9518 137.745 52.7821 137.155 53.5224C136.562 51.6817 137.192 50.4246 140.244 47.5002C139.558 47.2568 138.878 47.0434 138.218 46.7799C136.945 46.2731 136.292 45.3494 136.396 44.249C136.406 44.1357 136.449 44.0256 136.466 43.9723C136.845 44.3491 137.235 44.7292 137.715 45.2027C138.158 43.9923 138.885 43.4021 140.228 43.5288C139.664 42.9386 139.185 42.5084 138.798 42.0082C138.408 41.5081 138.055 40.9579 137.792 40.3843C137.662 40.1009 137.768 39.7074 137.768 39.2573C138.472 39.8075 139.081 40.2876 139.691 40.7678C139.751 40.7345 139.808 40.7011 139.868 40.6678C139.724 40.341 139.625 39.9875 139.431 39.6907C139.068 39.1305 139.155 38.6137 139.471 38.0868C139.811 37.52 140.491 36.9764 140.941 37.2265C141.85 37.73 142.537 37.2599 143.31 37.0965C143.347 37.0898 143.38 37.0665 143.456 37.0298C142.903 35.4226 142.827 33.7853 143.23 31.958C143.813 33.872 144.346 35.6193 144.893 37.4099C145.179 36.0028 145.449 34.6723 145.719 33.3385C145.789 33.3451 145.856 33.3518 145.926 33.3585C146.172 34.4355 146.419 35.5126 146.692 36.703C147.525 35.7627 148.508 35.4726 149.608 35.5026C150.657 35.5326 151.434 36.0995 151.624 36.9831C151.774 37.6767 151.52 38.2569 151.061 38.7604C150.944 38.8871 150.807 38.9938 150.887 38.9805C151.15 39.2773 151.417 39.5774 151.674 39.8641C152.67 37.8501 152.973 35.3959 154.256 33.3552C154.343 33.3785 154.426 33.3985 154.513 33.4218C154.249 34.9324 153.989 36.4463 153.736 37.8968C154.313 37.1132 154.892 36.2228 155.576 35.4192C156.475 34.3588 157.265 33.2318 157.941 32.0147C158.178 31.5912 158.495 31.1844 158.864 30.8709C159.424 30.3974 159.541 29.8206 159.558 29.1403C159.578 28.2 159.584 27.243 159.757 26.326C160.027 24.8988 160.95 23.8384 161.977 22.8547C163.026 21.851 164.083 20.8474 165.052 19.7703C165.485 19.2868 165.729 18.6266 166.015 18.0263C166.132 17.7763 166.135 17.4728 166.165 17.3161C165.362 17.2627 164.596 17.3561 163.933 17.136C162.407 16.6225 161.673 15.0153 162.057 13.2013C162.227 12.3943 162.157 11.7374 161.697 10.9938C160.657 9.3099 160.96 7.59929 161.997 5.99872C163.609 3.5145 166.862 2.37742 169.934 3.27108C170.044 3.30442 170.157 3.3311 170.327 3.37444L170.314 3.37111ZM153.793 40.4043C154.166 40.5911 154.363 40.7811 154.559 40.7745C155.086 40.7611 155.336 40.0309 155.955 40.1776C156.409 39.2773 156.862 38.3736 157.312 37.4733C157.258 37.4299 157.205 37.3899 157.148 37.3466C156.069 38.3303 154.989 39.3139 153.793 40.4043ZM143.933 43.8456C144.303 43.7189 144.263 43.3487 144.276 43.0186C144.306 42.2817 143.663 42.135 143.233 41.7448C143.476 42.4784 143.7 43.1453 143.936 43.8489L143.933 43.8456ZM147.682 39.2706C147.678 39.2039 147.672 39.1339 147.668 39.0672C147.458 38.8438 147.248 38.6204 147.039 38.3936C146.982 38.407 146.925 38.417 146.869 38.4303C146.929 38.7404 146.959 39.0605 147.072 39.3473C147.092 39.394 147.468 39.3006 147.678 39.2706H147.682ZM141.261 45.4228C141.437 45.7262 141.564 45.943 141.69 46.1597C141.844 46.0664 142.134 45.963 142.13 45.8763C142.11 45.5162 141.887 45.3161 141.264 45.4195L141.261 45.4228Z" fill="#E7B588"/>
</g>
<defs>
<clipPath id="clip0_237_2815">
<rect width="314" height="140" fill="white"/>
</clipPath>
</defs>
</svg>
