<svg width="295" height="24" viewBox="0 0 295 24" fill="none" xmlns="http://www.w3.org/2000/svg">
<path d="M15.56 15.2639C15.272 15.6959 14.92 16.1039 14.504 16.4879C14.104 16.8719 13.632 17.2079 13.088 17.4959C12.56 17.7839 11.968 18.0079 11.312 18.1679C10.672 18.3439 9.968 18.4319 9.2 18.4319C7.92 18.4319 6.73599 18.2079 5.64799 17.7599C4.55999 17.3119 3.62399 16.6959 2.83999 15.9119C2.05599 15.1119 1.43999 14.1679 0.991994 13.0799C0.559994 11.9919 0.343994 10.7999 0.343994 9.50393C0.343994 8.20793 0.567994 7.01593 1.01599 5.92793C1.46399 4.83993 2.07999 3.90393 2.86399 3.11993C3.66399 2.31993 4.59999 1.69593 5.672 1.24793C6.75999 0.799928 7.936 0.575928 9.2 0.575928C9.824 0.575928 10.432 0.639927 11.024 0.767927C11.632 0.895927 12.2 1.07993 12.728 1.31993C13.256 1.54393 13.736 1.82393 14.168 2.15993C14.6 2.47993 14.96 2.84793 15.248 3.26393L13.808 4.31993C13.632 4.04793 13.392 3.77593 13.088 3.50393C12.8 3.23193 12.456 2.99193 12.056 2.78393C11.656 2.57593 11.216 2.40793 10.736 2.27993C10.272 2.15193 9.76799 2.08793 9.224 2.08793C8.12 2.08793 7.12799 2.28793 6.24799 2.68793C5.38399 3.08793 4.64799 3.63193 4.03999 4.31993C3.43199 4.99193 2.96799 5.77593 2.64799 6.67193C2.32799 7.56793 2.16799 8.51193 2.16799 9.50393C2.16799 10.4959 2.32799 11.4399 2.64799 12.3359C2.98399 13.2319 3.45599 14.0239 4.06399 14.7119C4.67199 15.3839 5.40799 15.9199 6.27199 16.3199C7.15199 16.7199 8.13599 16.9199 9.224 16.9199C10.2 16.9199 11.128 16.7199 12.008 16.3199C12.888 15.9199 13.624 15.2799 14.216 14.3999L15.56 15.2639Z" fill="#191919"/>
<path d="M16.5134 6.76793H26.3774V8.13593H22.1294V17.9999H20.4974V8.13593H16.5134V6.76793Z" fill="#191919"/>
<path d="M32.6334 16.2479H32.6814L36.1614 6.76793H37.9374L32.3454 20.9039C32.0094 21.7679 31.5774 22.4559 31.0494 22.9679C30.5374 23.4959 29.7934 23.7599 28.8174 23.7599C28.3214 23.7599 27.8334 23.7119 27.3534 23.6159L27.5214 22.1279C27.9054 22.2559 28.3054 22.3199 28.7214 22.3199C29.2814 22.3199 29.7214 22.1439 30.0414 21.7919C30.3614 21.4559 30.6414 20.9679 30.8814 20.3279L31.7934 17.9759L26.9934 6.76793H28.8174L32.6334 16.2479Z" fill="#191919"/>
<path d="M39.9361 21.3359H38.3281V16.5839H40.1281L44.2561 6.76793H45.6961L49.5121 16.5839H51.3841V21.3359H49.8001V17.9999H39.9361V21.3359ZM41.7841 16.5839H47.8801L44.9281 8.73593L41.7841 16.5839Z" fill="#191919"/>
<path d="M62.0148 8.85593L55.1268 17.9999H53.4468V6.76793H55.1268V15.5759L62.0148 6.76793H63.6948V17.9999H62.0148V8.85593Z" fill="#191919"/>
<path d="M73.046 13.1759C71.798 13.1759 70.846 13.6079 70.19 14.4719C69.534 15.3199 69.142 16.4959 69.014 17.9999H67.19C67.238 17.3759 67.342 16.7759 67.502 16.1999C67.662 15.6239 67.878 15.1039 68.15 14.6399C68.438 14.1599 68.774 13.7519 69.158 13.4159C69.558 13.0639 70.014 12.7999 70.526 12.6239V12.5519C69.71 12.4719 69.038 12.2319 68.51 11.8319C67.982 11.4159 67.718 10.7999 67.718 9.98393C67.718 8.95993 68.11 8.16793 68.894 7.60793C69.694 7.04793 70.854 6.76793 72.374 6.76793H76.622V17.9999H74.99V13.1759H73.046ZM69.446 9.98393C69.446 10.3679 69.534 10.6799 69.71 10.9199C69.886 11.1599 70.118 11.3439 70.406 11.4719C70.71 11.5839 71.054 11.6639 71.438 11.7119C71.822 11.7439 72.214 11.7599 72.614 11.7599H74.99V8.18393H72.59C72.158 8.18393 71.75 8.19993 71.366 8.23193C70.982 8.26393 70.646 8.34393 70.358 8.47193C70.086 8.58393 69.862 8.75993 69.686 8.99993C69.526 9.23993 69.446 9.56793 69.446 9.98393Z" fill="#191919"/>
<path d="M86.7515 17.9999V6.76793H88.3835V16.5359H94.4075V6.76793H96.0395V16.5359H97.9115V21.3359H96.2795V17.9999H86.7515Z" fill="#191919"/>
<path d="M105.598 17.9999H100.462V6.76793H105.31C106.734 6.76793 107.79 7.04793 108.478 7.60793C109.166 8.15193 109.51 8.87993 109.51 9.79193C109.51 10.2079 109.446 10.5599 109.318 10.8479C109.19 11.1199 109.006 11.3519 108.766 11.5439C108.542 11.7199 108.278 11.8639 107.974 11.9759C107.67 12.0879 107.35 12.1919 107.014 12.2879C107.43 12.3199 107.822 12.3919 108.19 12.5039C108.558 12.6159 108.878 12.7839 109.15 13.0079C109.438 13.2159 109.662 13.4879 109.822 13.8239C109.982 14.1439 110.062 14.5359 110.062 14.9999C110.062 15.9119 109.686 16.6399 108.934 17.1839C108.182 17.7279 107.07 17.9999 105.598 17.9999ZM102.094 16.6799H104.182C104.774 16.6799 105.318 16.6719 105.814 16.6559C106.31 16.6239 106.742 16.5519 107.11 16.4399C107.478 16.3119 107.766 16.1199 107.974 15.8639C108.182 15.6079 108.286 15.2479 108.286 14.7839C108.286 14.0159 107.998 13.5119 107.422 13.2719C106.862 13.0319 106.102 12.9119 105.142 12.9119H102.094V16.6799ZM105.214 11.7359C106.014 11.7359 106.638 11.6159 107.086 11.3759C107.55 11.1199 107.782 10.6239 107.782 9.88793C107.782 9.47193 107.694 9.14393 107.518 8.90393C107.342 8.66393 107.094 8.48793 106.774 8.37593C106.454 8.24793 106.07 8.16793 105.622 8.13593C105.174 8.10393 104.678 8.08793 104.134 8.08793H102.094V11.7359H105.214Z" fill="#191919"/>
<path d="M122.111 11.5199C122.063 10.4639 121.719 9.59193 121.079 8.90393C120.455 8.19993 119.559 7.84793 118.391 7.84793C117.847 7.84793 117.343 7.95193 116.879 8.15993C116.415 8.35193 116.007 8.62393 115.655 8.97593C115.303 9.31193 115.023 9.70393 114.815 10.1519C114.607 10.5839 114.487 11.0399 114.455 11.5199H122.111ZM123.767 12.0479C123.767 12.1599 123.767 12.2799 123.767 12.4079C123.767 12.5359 123.759 12.6719 123.743 12.8159H114.431C114.447 13.3759 114.559 13.9039 114.767 14.3999C114.975 14.8959 115.263 15.3279 115.631 15.6959C115.999 16.0639 116.431 16.3599 116.927 16.5839C117.423 16.7919 117.959 16.8959 118.535 16.8959C119.383 16.8959 120.111 16.7039 120.719 16.3199C121.343 15.9199 121.815 15.4639 122.135 14.9519L123.359 15.9119C122.687 16.7599 121.943 17.3679 121.127 17.7359C120.327 18.1039 119.463 18.2879 118.535 18.2879C117.703 18.2879 116.927 18.1439 116.207 17.8559C115.503 17.5519 114.895 17.1359 114.383 16.6079C113.871 16.0799 113.463 15.4559 113.159 14.7359C112.871 14.0159 112.727 13.2319 112.727 12.3839C112.727 11.5359 112.871 10.7519 113.159 10.0319C113.447 9.31193 113.847 8.68793 114.359 8.15993C114.871 7.63193 115.471 7.22393 116.159 6.93593C116.847 6.63193 117.591 6.47993 118.391 6.47993C119.271 6.47993 120.047 6.63193 120.719 6.93593C121.391 7.22393 121.951 7.62393 122.399 8.13593C122.847 8.63193 123.183 9.21593 123.407 9.88793C123.647 10.5599 123.767 11.2799 123.767 12.0479Z" fill="#191919"/>
<path d="M125.357 6.76793H135.221V8.13593H130.973V17.9999H129.341V8.13593H125.357V6.76793Z" fill="#191919"/>
<path d="M148.773 12.3839C148.773 13.2319 148.621 14.0159 148.317 14.7359C148.029 15.4559 147.621 16.0799 147.093 16.6079C146.565 17.1359 145.933 17.5519 145.197 17.8559C144.461 18.1439 143.653 18.2879 142.773 18.2879C141.909 18.2879 141.109 18.1439 140.373 17.8559C139.637 17.5519 139.005 17.1359 138.477 16.6079C137.949 16.0799 137.533 15.4559 137.229 14.7359C136.941 14.0159 136.797 13.2319 136.797 12.3839C136.797 11.5359 136.941 10.7519 137.229 10.0319C137.533 9.31193 137.949 8.68793 138.477 8.15993C139.005 7.63193 139.637 7.22393 140.373 6.93593C141.109 6.63193 141.909 6.47993 142.773 6.47993C143.653 6.47993 144.461 6.63193 145.197 6.93593C145.933 7.22393 146.565 7.63193 147.093 8.15993C147.621 8.68793 148.029 9.31193 148.317 10.0319C148.621 10.7519 148.773 11.5359 148.773 12.3839ZM147.045 12.3839C147.045 11.7599 146.941 11.1759 146.733 10.6319C146.541 10.0719 146.261 9.59193 145.893 9.19193C145.525 8.77593 145.077 8.44793 144.549 8.20793C144.021 7.96793 143.429 7.84793 142.773 7.84793C142.117 7.84793 141.525 7.96793 140.997 8.20793C140.485 8.44793 140.045 8.77593 139.677 9.19193C139.309 9.59193 139.021 10.0719 138.813 10.6319C138.621 11.1759 138.525 11.7599 138.525 12.3839C138.525 13.0079 138.621 13.5999 138.813 14.1599C139.021 14.7039 139.309 15.1839 139.677 15.5999C140.045 15.9999 140.485 16.3199 140.997 16.5599C141.525 16.7839 142.117 16.8959 142.773 16.8959C143.429 16.8959 144.021 16.7839 144.549 16.5599C145.077 16.3199 145.525 15.9999 145.893 15.5999C146.261 15.1839 146.541 14.7039 146.733 14.1599C146.941 13.5999 147.045 13.0079 147.045 12.3839Z" fill="#191919"/>
<path d="M157.325 17.9999H152.189V6.76793H157.037C158.461 6.76793 159.517 7.04793 160.205 7.60793C160.893 8.15193 161.237 8.87993 161.237 9.79193C161.237 10.2079 161.173 10.5599 161.045 10.8479C160.917 11.1199 160.733 11.3519 160.493 11.5439C160.269 11.7199 160.005 11.8639 159.701 11.9759C159.397 12.0879 159.077 12.1919 158.741 12.2879C159.157 12.3199 159.549 12.3919 159.917 12.5039C160.285 12.6159 160.605 12.7839 160.877 13.0079C161.165 13.2159 161.389 13.4879 161.549 13.8239C161.709 14.1439 161.789 14.5359 161.789 14.9999C161.789 15.9119 161.413 16.6399 160.661 17.1839C159.909 17.7279 158.797 17.9999 157.325 17.9999ZM153.821 16.6799H155.909C156.501 16.6799 157.045 16.6719 157.541 16.6559C158.037 16.6239 158.469 16.5519 158.837 16.4399C159.205 16.3119 159.493 16.1199 159.701 15.8639C159.909 15.6079 160.013 15.2479 160.013 14.7839C160.013 14.0159 159.725 13.5119 159.149 13.2719C158.589 13.0319 157.829 12.9119 156.869 12.9119H153.821V16.6799ZM156.941 11.7359C157.741 11.7359 158.365 11.6159 158.813 11.3759C159.277 11.1199 159.509 10.6239 159.509 9.88793C159.509 9.47193 159.421 9.14393 159.245 8.90393C159.069 8.66393 158.821 8.48793 158.501 8.37593C158.181 8.24793 157.797 8.16793 157.349 8.13593C156.901 8.10393 156.405 8.08793 155.861 8.08793H153.821V11.7359H156.941Z" fill="#191919"/>
<path d="M171.245 17.9999H169.349L176.693 1.00793H178.373L185.669 17.9999H183.749L177.485 3.16793L171.245 17.9999Z" fill="#191919"/>
<path d="M196.054 8.85593L189.166 17.9999H187.486V6.76793H189.166V15.5759L196.054 6.76793H197.734V17.9999H196.054V8.85593Z" fill="#191919"/>
<path d="M200.029 6.76793H209.893V8.13593H205.645V17.9999H204.013V8.13593H200.029V6.76793Z" fill="#191919"/>
<path d="M210.365 6.76793H220.229V8.13593H215.981V17.9999H214.349V8.13593H210.365V6.76793Z" fill="#191919"/>
<path d="M230.253 17.9999L226.533 8.73593L222.645 17.9999H220.941L225.861 6.76793H227.301L231.909 17.9999H230.253Z" fill="#191919"/>
<path d="M257.447 9.50393C257.447 10.7999 257.223 11.9919 256.775 13.0799C256.327 14.1679 255.703 15.1119 254.903 15.9119C254.119 16.6959 253.183 17.3119 252.095 17.7599C251.023 18.2079 249.855 18.4319 248.591 18.4319C247.327 18.4319 246.151 18.2079 245.063 17.7599C243.991 17.3119 243.055 16.6959 242.255 15.9119C241.471 15.1119 240.855 14.1679 240.407 13.0799C239.959 11.9919 239.735 10.7999 239.735 9.50393C239.735 8.20793 239.959 7.01593 240.407 5.92793C240.855 4.83993 241.471 3.90393 242.255 3.11993C243.055 2.31993 243.991 1.69593 245.063 1.24793C246.151 0.799928 247.327 0.575928 248.591 0.575928C249.855 0.575928 251.023 0.799928 252.095 1.24793C253.183 1.69593 254.119 2.31993 254.903 3.11993C255.703 3.90393 256.327 4.83993 256.775 5.92793C257.223 7.01593 257.447 8.20793 257.447 9.50393ZM255.623 9.50393C255.623 8.51193 255.463 7.56793 255.143 6.67193C254.823 5.77593 254.359 4.99193 253.751 4.31993C253.143 3.63193 252.399 3.08793 251.519 2.68793C250.655 2.28793 249.679 2.08793 248.591 2.08793C247.503 2.08793 246.519 2.28793 245.639 2.68793C244.775 3.08793 244.039 3.63193 243.431 4.31993C242.823 4.99193 242.359 5.77593 242.039 6.67193C241.719 7.56793 241.559 8.51193 241.559 9.50393C241.559 10.4959 241.719 11.4399 242.039 12.3359C242.359 13.2319 242.823 14.0159 243.431 14.6879C244.039 15.3599 244.775 15.8959 245.639 16.2959C246.519 16.6959 247.503 16.8959 248.591 16.8959C249.679 16.8959 250.655 16.6959 251.519 16.2959C252.399 15.8959 253.143 15.3599 253.751 14.6879C254.359 14.0159 254.823 13.2319 255.143 12.3359C255.463 11.4399 255.623 10.4959 255.623 9.50393Z" fill="#191919"/>
<path d="M268.573 17.9999L264.853 8.73593L260.965 17.9999H259.261L264.181 6.76793H265.621L270.229 17.9999H268.573Z" fill="#191919"/>
<path d="M280.503 17.9999L276.783 8.73593L272.895 17.9999H271.191L276.111 6.76793H277.551L282.159 17.9999H280.503Z" fill="#191919"/>
<path d="M293.273 8.85593L286.385 17.9999H284.705V6.76793H286.385V15.5759L293.273 6.76793H294.953V17.9999H293.273V8.85593Z" fill="#191919"/>
</svg>
