<svg width="438" height="195" viewBox="0 0 438 195" fill="none" xmlns="http://www.w3.org/2000/svg">
<g clip-path="url(#clip0_131_2941)">
<path d="M73.0116 185.781C72.6955 186.25 72.319 186.691 71.8728 187.104C71.4266 187.522 70.9106 187.889 70.325 188.205C69.7393 188.521 69.0933 188.772 68.3867 188.958C67.6802 189.143 66.904 189.236 66.0674 189.236C64.6683 189.236 63.3761 188.995 62.1909 188.512C61.001 188.029 59.9831 187.355 59.1232 186.501C58.2679 185.646 57.5986 184.629 57.1199 183.449C56.6411 182.274 56.3994 180.983 56.3994 179.58C56.3994 178.178 56.6458 176.891 57.1338 175.711C57.6219 174.536 58.3005 173.519 59.165 172.66C60.0295 171.805 61.0521 171.132 62.2327 170.649C63.4133 170.166 64.6915 169.92 66.072 169.92C66.7553 169.92 67.42 169.989 68.0753 170.129C68.7307 170.268 69.3442 170.468 69.9206 170.723C70.497 170.979 71.0222 171.285 71.4916 171.643C71.9611 172 72.3562 172.404 72.6723 172.855L71.1012 173.998C70.9106 173.705 70.6503 173.408 70.3296 173.115C70.0043 172.823 69.6278 172.562 69.1909 172.335C68.7539 172.112 68.2798 171.926 67.7639 171.791C67.248 171.652 66.6949 171.582 66.0999 171.582C64.8961 171.582 63.8177 171.796 62.8649 172.228C61.912 172.66 61.1032 173.24 60.4432 173.974C59.7785 174.708 59.2719 175.558 58.9233 176.524C58.5747 177.49 58.3981 178.507 58.3981 179.576C58.3981 180.644 58.5747 181.661 58.9373 182.627C59.2952 183.593 59.8064 184.443 60.4711 185.177C61.1358 185.911 61.9445 186.491 62.8927 186.923C63.8456 187.355 64.9147 187.569 66.1046 187.569C67.169 187.569 68.1822 187.355 69.1444 186.919C70.1065 186.487 70.906 185.795 71.5567 184.843L73.0255 185.776L73.0116 185.781Z" fill="#E7B588"/>
<path d="M74.0576 176.617H84.8272V178.099H80.1884V188.767H78.4082V178.099H74.0576V176.617Z" fill="#E7B588"/>
<path d="M91.6643 186.872H91.7154L95.5129 176.617H97.4511L91.3482 191.907C90.981 192.84 90.5116 193.588 89.9445 194.15C89.3775 194.712 88.5594 194.995 87.495 194.995C86.9512 194.995 86.4213 194.944 85.8961 194.837L86.0773 193.23C86.4957 193.37 86.9326 193.439 87.3881 193.439C88.0016 193.439 88.4804 193.254 88.829 192.882C89.1776 192.51 89.4844 191.976 89.7447 191.284L90.7393 188.739L85.501 176.617H87.495L91.6596 186.872H91.6643Z" fill="#E7B588"/>
<path d="M99.631 192.376H97.874V187.234H99.8401L104.349 176.617H105.92L110.084 187.234H112.13V192.376H110.401V188.767H99.631V192.376ZM101.648 187.234H108.304L105.083 178.744L101.653 187.234H101.648Z" fill="#E7B588"/>
<path d="M123.736 178.879L116.215 188.767H114.379V176.617H116.215V186.143L123.736 176.617H125.572V188.767H123.736V178.879Z" fill="#E7B588"/>
<path d="M135.788 183.551C134.426 183.551 133.385 184.016 132.669 184.94C131.953 185.864 131.526 187.141 131.386 188.767H129.397C129.448 188.094 129.564 187.443 129.736 186.821C129.913 186.199 130.15 185.632 130.457 185.121C130.763 184.61 131.131 184.169 131.558 183.797C131.986 183.426 132.479 183.142 133.036 182.952V182.873C132.144 182.785 131.41 182.525 130.833 182.084C130.257 181.642 129.969 180.978 129.969 180.096C129.969 178.99 130.401 178.131 131.265 177.527C132.13 176.923 133.394 176.617 135.054 176.617H139.692V188.767H137.912V183.551H135.788ZM131.856 180.1C131.856 180.514 131.953 180.853 132.144 181.113C132.335 181.373 132.595 181.568 132.916 181.698C133.236 181.828 133.608 181.916 134.031 181.958C134.449 182 134.877 182.023 135.314 182.023H137.908V178.154H135.286C134.817 178.154 134.37 178.173 133.947 178.205C133.529 178.243 133.167 178.321 132.86 178.452C132.553 178.582 132.311 178.777 132.125 179.037C131.939 179.297 131.851 179.65 131.851 180.1H131.856Z" fill="#E7B588"/>
<path d="M150.746 188.767V176.617H152.526V187.183H159.103V176.617H160.883V187.183H162.928V192.376H161.148V188.767H150.746Z" fill="#E7B588"/>
<path d="M171.318 188.767H165.712V176.617H171.007C172.564 176.617 173.716 176.914 174.465 177.513C175.218 178.112 175.59 178.902 175.59 179.887C175.59 180.337 175.52 180.713 175.38 181.015C175.241 181.317 175.046 181.568 174.79 181.768C174.539 181.967 174.242 182.125 173.912 182.246C173.582 182.367 173.228 182.478 172.866 182.585C173.321 182.622 173.749 182.697 174.149 182.817C174.548 182.938 174.902 183.115 175.208 183.351C175.515 183.584 175.752 183.881 175.929 184.234C176.105 184.587 176.189 185.019 176.189 185.52C176.189 186.505 175.78 187.295 174.957 187.885C174.135 188.474 172.922 188.767 171.318 188.767ZM170.9 181.991C171.773 181.991 172.457 181.856 172.954 181.587C173.451 181.317 173.702 180.783 173.702 179.98C173.702 179.529 173.605 179.171 173.414 178.907C173.224 178.642 172.949 178.447 172.601 178.317C172.252 178.187 171.834 178.103 171.341 178.071C170.849 178.038 170.309 178.02 169.714 178.02H167.488V181.991H170.895H170.9ZM167.493 187.364H169.77C170.416 187.364 171.011 187.35 171.55 187.327C172.09 187.299 172.564 187.22 172.963 187.09C173.363 186.96 173.679 186.756 173.907 186.477C174.135 186.199 174.246 185.808 174.246 185.302C174.246 184.466 173.935 183.918 173.317 183.658C172.698 183.398 171.862 183.268 170.816 183.268H167.488V187.369L167.493 187.364Z" fill="#E7B588"/>
<path d="M191.151 182.33V182.72C191.151 182.859 191.142 183.003 191.123 183.161H180.958C180.977 183.765 181.098 184.336 181.325 184.875C181.553 185.414 181.869 185.878 182.269 186.278C182.673 186.677 183.143 186.993 183.682 187.225C184.221 187.457 184.807 187.573 185.439 187.573C186.364 187.573 187.163 187.36 187.837 186.937C188.511 186.515 189.022 186.027 189.371 185.47L190.71 186.51C189.975 187.43 189.167 188.084 188.288 188.484C187.405 188.883 186.457 189.083 185.443 189.083C184.537 189.083 183.691 188.925 182.915 188.605C182.139 188.284 181.469 187.838 180.912 187.267C180.354 186.696 179.912 186.022 179.587 185.242C179.262 184.462 179.104 183.616 179.104 182.697C179.104 181.777 179.262 180.932 179.573 180.152C179.884 179.371 180.326 178.698 180.884 178.127C181.441 177.555 182.097 177.109 182.85 176.789C183.603 176.468 184.412 176.311 185.285 176.311C186.248 176.311 187.094 176.473 187.828 176.789C188.562 177.109 189.171 177.541 189.664 178.085C190.157 178.628 190.524 179.264 190.779 179.994C191.03 180.723 191.161 181.498 191.161 182.33H191.151ZM189.343 181.759C189.292 180.616 188.92 179.669 188.228 178.916C187.54 178.164 186.554 177.788 185.281 177.788C184.686 177.788 184.137 177.894 183.631 178.113C183.124 178.331 182.678 178.624 182.292 178.995C181.906 179.367 181.604 179.789 181.376 180.268C181.149 180.746 181.019 181.243 180.981 181.759H189.339H189.343Z" fill="#E7B588"/>
<path d="M192.88 176.617H203.65V178.099H199.011V188.767H197.231V178.099H192.88V176.617Z" fill="#E7B588"/>
<path d="M218.449 182.692C218.449 183.607 218.286 184.457 217.966 185.237C217.645 186.018 217.194 186.691 216.618 187.262C216.041 187.834 215.349 188.279 214.549 188.6C213.745 188.92 212.862 189.078 211.905 189.078C210.947 189.078 210.087 188.92 209.283 188.6C208.479 188.279 207.791 187.834 207.215 187.262C206.638 186.691 206.187 186.018 205.867 185.237C205.546 184.457 205.383 183.612 205.383 182.692C205.383 181.773 205.546 180.927 205.867 180.147C206.187 179.367 206.638 178.693 207.215 178.122C207.791 177.551 208.479 177.105 209.283 176.784C210.087 176.464 210.961 176.306 211.905 176.306C212.848 176.306 213.745 176.468 214.549 176.784C215.353 177.105 216.041 177.551 216.618 178.122C217.194 178.693 217.645 179.367 217.966 180.147C218.286 180.927 218.449 181.773 218.449 182.692ZM216.562 182.692C216.562 182.019 216.45 181.382 216.232 180.783C216.013 180.184 215.702 179.669 215.302 179.227C214.903 178.786 214.41 178.438 213.833 178.178C213.257 177.918 212.611 177.788 211.895 177.788C211.179 177.788 210.538 177.918 209.971 178.178C209.404 178.438 208.92 178.786 208.516 179.227C208.116 179.669 207.805 180.189 207.586 180.783C207.368 181.382 207.256 182.019 207.256 182.692C207.256 183.366 207.363 184.002 207.586 184.601C207.805 185.2 208.116 185.716 208.516 186.157C208.92 186.598 209.404 186.946 209.971 187.197C210.538 187.448 211.179 187.573 211.895 187.573C212.611 187.573 213.257 187.448 213.833 187.197C214.41 186.946 214.898 186.598 215.302 186.157C215.707 185.716 216.013 185.196 216.232 184.601C216.45 184.002 216.562 183.37 216.562 182.692Z" fill="#E7B588"/>
<path d="M227.778 188.767H222.172V176.617H227.467C229.019 176.617 230.172 176.914 230.925 177.513C231.678 178.112 232.049 178.902 232.049 179.887C232.049 180.337 231.98 180.713 231.84 181.015C231.701 181.317 231.506 181.568 231.25 181.768C230.999 181.967 230.706 182.125 230.372 182.246C230.037 182.367 229.688 182.478 229.326 182.585C229.781 182.622 230.209 182.697 230.609 182.817C231.013 182.938 231.362 183.115 231.668 183.351C231.975 183.584 232.212 183.881 232.389 184.234C232.565 184.587 232.649 185.019 232.649 185.52C232.649 186.505 232.24 187.295 231.417 187.885C230.595 188.474 229.382 188.767 227.773 188.767H227.778ZM227.36 181.991C228.233 181.991 228.917 181.856 229.414 181.587C229.911 181.317 230.162 180.783 230.162 179.98C230.162 179.529 230.065 179.171 229.874 178.907C229.684 178.647 229.409 178.447 229.061 178.317C228.712 178.187 228.294 178.103 227.801 178.071C227.313 178.034 226.769 178.02 226.179 178.02H223.953V181.991H227.36ZM223.953 187.364H226.23C226.876 187.364 227.471 187.35 228.01 187.327C228.549 187.299 229.024 187.22 229.423 187.09C229.823 186.96 230.139 186.756 230.367 186.477C230.595 186.199 230.706 185.808 230.706 185.302C230.706 184.466 230.395 183.918 229.777 183.658C229.158 183.398 228.322 183.268 227.276 183.268H223.948V187.369L223.953 187.364Z" fill="#E7B588"/>
<path d="M252.25 178.879L244.729 188.767H242.893V176.617H244.729V186.143L252.25 176.617H254.086V188.767H252.25V178.879Z" fill="#E7B588"/>
<path d="M266.924 188.767H265.144V176.617H275.495V188.767H273.715V178.099H266.928V188.767H266.924Z" fill="#E7B588"/>
<path d="M292.283 182.692C292.283 183.607 292.121 184.457 291.8 185.237C291.475 186.018 291.028 186.691 290.452 187.262C289.876 187.834 289.188 188.279 288.384 188.6C287.58 188.92 286.697 189.078 285.739 189.078C284.782 189.078 283.922 188.92 283.117 188.6C282.313 188.279 281.625 187.834 281.049 187.262C280.473 186.691 280.022 186.018 279.701 185.237C279.376 184.457 279.218 183.612 279.218 182.692C279.218 181.773 279.38 180.927 279.701 180.147C280.022 179.367 280.473 178.693 281.049 178.122C281.625 177.551 282.313 177.105 283.117 176.784C283.922 176.464 284.795 176.306 285.739 176.306C286.683 176.306 287.58 176.468 288.384 176.784C289.188 177.105 289.876 177.551 290.452 178.122C291.028 178.693 291.479 179.367 291.8 180.147C292.121 180.927 292.283 181.773 292.283 182.692ZM290.396 182.692C290.396 182.019 290.289 181.382 290.071 180.783C289.853 180.184 289.541 179.669 289.141 179.227C288.737 178.786 288.249 178.438 287.673 178.178C287.096 177.918 286.45 177.788 285.734 177.788C285.019 177.788 284.377 177.918 283.81 178.178C283.243 178.438 282.755 178.786 282.355 179.227C281.951 179.669 281.644 180.189 281.426 180.783C281.207 181.382 281.1 182.019 281.1 182.692C281.1 183.366 281.207 184.002 281.426 184.601C281.644 185.2 281.955 185.716 282.355 186.157C282.755 186.598 283.243 186.946 283.81 187.197C284.377 187.448 285.019 187.573 285.734 187.573C286.45 187.573 287.096 187.448 287.673 187.197C288.249 186.946 288.737 186.598 289.141 186.157C289.541 185.716 289.853 185.196 290.071 184.601C290.289 184.002 290.396 183.37 290.396 182.692Z" fill="#E7B588"/>
<path d="M295.505 192.376H293.748V187.234H295.714L300.222 176.617H301.793L305.958 187.234H308.003V192.376H306.274V188.767H295.505V192.376ZM297.522 187.234H304.178L300.957 178.744L297.526 187.234H297.522Z" fill="#E7B588"/>
<path d="M318.094 180.904C318.094 179.854 317.815 179.074 317.257 178.558C316.7 178.043 315.886 177.788 314.822 177.788C314.087 177.788 313.409 177.918 312.777 178.178C312.149 178.438 311.615 178.781 311.178 179.218L310.183 178.052C310.69 177.551 311.359 177.137 312.186 176.808C313.018 176.478 313.953 176.315 315.003 176.315C315.668 176.315 316.286 176.408 316.862 176.589C317.439 176.77 317.945 177.044 318.382 177.407C318.819 177.769 319.159 178.229 319.405 178.781C319.651 179.334 319.772 179.984 319.772 180.727V186.05C319.772 186.519 319.791 187.002 319.823 187.504C319.856 188.005 319.911 188.428 319.981 188.776H318.382C318.331 188.484 318.285 188.163 318.252 187.815C318.215 187.471 318.201 187.132 318.201 186.803H318.15C317.592 187.615 316.96 188.201 316.249 188.553C315.542 188.906 314.692 189.088 313.692 189.088C313.218 189.088 312.735 189.023 312.238 188.893C311.74 188.762 311.285 188.549 310.876 188.256C310.467 187.964 310.123 187.578 309.853 187.109C309.584 186.64 309.449 186.069 309.449 185.391C309.449 184.452 309.69 183.709 310.169 183.166C310.648 182.618 311.289 182.209 312.093 181.944C312.898 181.675 313.818 181.503 314.859 181.424C315.9 181.345 316.979 181.308 318.094 181.308V180.923V180.904ZM317.569 182.692C316.834 182.692 316.095 182.725 315.356 182.785C314.613 182.845 313.943 182.966 313.339 183.147C312.735 183.328 312.242 183.593 311.861 183.941C311.475 184.29 311.285 184.745 311.285 185.316C311.285 185.748 311.368 186.11 311.536 186.408C311.703 186.7 311.926 186.942 312.205 187.123C312.484 187.304 312.795 187.434 313.135 187.513C313.474 187.592 313.818 187.629 314.171 187.629C314.799 187.629 315.361 187.522 315.849 187.304C316.337 187.09 316.751 186.793 317.081 186.422C317.411 186.05 317.666 185.623 317.838 185.135C318.015 184.652 318.099 184.141 318.099 183.602V182.692H317.574H317.569Z" fill="#E7B588"/>
<path d="M326.135 195H324.355V176.622H326.135V178.726H326.214C326.721 177.931 327.399 177.328 328.245 176.924C329.091 176.515 329.951 176.315 330.825 176.315C331.787 176.315 332.656 176.482 333.433 176.808C334.209 177.137 334.874 177.588 335.422 178.159C335.97 178.73 336.398 179.404 336.705 180.184C337.012 180.964 337.165 181.8 337.165 182.701C337.165 183.602 337.012 184.438 336.705 185.219C336.398 185.999 335.97 186.672 335.422 187.244C334.874 187.815 334.209 188.266 333.433 188.595C332.656 188.925 331.787 189.088 330.825 189.088C329.951 189.088 329.091 188.883 328.245 188.479C327.399 188.075 326.721 187.49 326.214 186.728H326.135V195.009V195ZM335.278 182.697C335.278 182.023 335.171 181.387 334.962 180.788C334.753 180.189 334.451 179.673 334.06 179.232C333.67 178.791 333.182 178.442 332.605 178.182C332.029 177.922 331.374 177.792 330.639 177.792C329.961 177.792 329.328 177.918 328.752 178.168C328.176 178.419 327.678 178.767 327.26 179.209C326.842 179.65 326.512 180.17 326.279 180.765C326.042 181.364 325.926 182.005 325.926 182.697C325.926 183.389 326.042 184.034 326.279 184.629C326.516 185.228 326.842 185.739 327.26 186.175C327.678 186.612 328.176 186.951 328.752 187.202C329.328 187.453 329.956 187.578 330.639 187.578C331.374 187.578 332.029 187.453 332.605 187.202C333.182 186.951 333.665 186.603 334.06 186.162C334.455 185.72 334.753 185.2 334.962 184.606C335.171 184.007 335.278 183.375 335.278 182.697Z" fill="#E7B588"/>
<path d="M342.668 181.605C343.366 181.605 344.021 181.656 344.635 181.758L349.036 176.617H351.026L346.257 182.121C347.707 182.571 348.832 183.338 349.636 184.42C350.44 185.502 351.077 186.951 351.551 188.767H349.561C349.315 187.694 349.008 186.798 348.632 186.078C348.255 185.363 347.786 184.782 347.219 184.341C346.652 183.9 345.992 183.588 345.239 183.407C344.486 183.226 343.631 183.124 342.673 183.11V188.767H340.893V176.617H342.673V181.601L342.668 181.605Z" fill="#E7B588"/>
<path d="M367.401 182.692C367.401 183.607 367.238 184.457 366.917 185.237C366.592 186.018 366.146 186.691 365.569 187.262C364.993 187.834 364.305 188.279 363.501 188.6C362.697 188.92 361.814 189.078 360.856 189.078C359.899 189.078 359.039 188.92 358.235 188.6C357.431 188.279 356.743 187.834 356.166 187.262C355.59 186.691 355.139 186.018 354.818 185.237C354.493 184.457 354.335 183.612 354.335 182.692C354.335 181.773 354.498 180.927 354.818 180.147C355.139 179.367 355.59 178.693 356.166 178.122C356.743 177.551 357.431 177.105 358.235 176.784C359.039 176.464 359.913 176.306 360.856 176.306C361.8 176.306 362.697 176.468 363.501 176.784C364.305 177.105 364.993 177.551 365.569 178.122C366.146 178.693 366.597 179.367 366.917 180.147C367.238 180.927 367.401 181.773 367.401 182.692ZM365.514 182.692C365.514 182.019 365.402 181.382 365.188 180.783C364.97 180.184 364.658 179.669 364.259 179.227C363.859 178.786 363.366 178.438 362.79 178.178C362.213 177.918 361.567 177.788 360.852 177.788C360.136 177.788 359.494 177.918 358.927 178.178C358.36 178.438 357.877 178.786 357.472 179.227C357.068 179.669 356.761 180.189 356.543 180.783C356.324 181.378 356.217 182.019 356.217 182.692C356.217 183.366 356.324 184.002 356.543 184.601C356.761 185.2 357.073 185.716 357.472 186.157C357.872 186.598 358.36 186.946 358.927 187.197C359.494 187.448 360.136 187.573 360.852 187.573C361.567 187.573 362.213 187.448 362.79 187.197C363.366 186.946 363.854 186.598 364.259 186.157C364.663 185.716 364.97 185.196 365.188 184.601C365.407 184.002 365.514 183.37 365.514 182.692Z" fill="#E7B588"/>
<path d="M376.729 188.767H371.124V176.617H376.418C377.97 176.617 379.128 176.914 379.876 177.513C380.629 178.112 381.001 178.902 381.001 179.887C381.001 180.337 380.931 180.713 380.792 181.015C380.652 181.317 380.457 181.568 380.201 181.768C379.95 181.967 379.658 182.125 379.323 182.246C378.988 182.367 378.644 182.478 378.277 182.585C378.733 182.622 379.16 182.697 379.56 182.817C379.96 182.938 380.313 183.115 380.62 183.351C380.927 183.584 381.164 183.881 381.34 184.234C381.517 184.587 381.6 185.019 381.6 185.52C381.6 186.505 381.191 187.295 380.369 187.885C379.546 188.474 378.333 188.767 376.725 188.767H376.729ZM376.311 181.991C377.185 181.991 377.868 181.856 378.37 181.587C378.867 181.317 379.118 180.783 379.118 179.98C379.118 179.529 379.021 179.171 378.83 178.907C378.64 178.647 378.365 178.447 378.017 178.317C377.668 178.187 377.25 178.103 376.757 178.071C376.269 178.034 375.725 178.02 375.13 178.02H372.904V181.991H376.311ZM372.904 187.364H375.182C375.828 187.364 376.423 187.35 376.962 187.327C377.501 187.299 377.975 187.22 378.375 187.09C378.774 186.96 379.091 186.756 379.318 186.477C379.546 186.199 379.658 185.808 379.658 185.302C379.658 184.466 379.346 183.918 378.728 183.658C378.11 183.398 377.273 183.268 376.227 183.268H372.899V187.369L372.904 187.364Z" fill="#E7B588"/>
<path d="M6.326 162.107H0L24.5092 107.033H30.1147L54.4612 162.107H48.0562L27.1539 114.037L6.326 162.107Z" fill="#E7B588"/>
<path d="M91.2181 132.471L68.2335 162.107H62.6279V125.704H68.2335V154.253L91.2181 125.704H96.8237V162.107H91.2181V132.471Z" fill="#E7B588"/>
<path d="M106.599 125.704H139.516V130.139H125.34V162.112H119.892V130.139H106.599V125.704Z" fill="#E7B588"/>
<path d="M143.197 125.704H176.115V130.139H161.938V162.112H156.491V130.139H143.197V125.704Z" fill="#E7B588"/>
<path d="M211.672 162.107L199.257 132.081L186.285 162.107H180.6L197.017 125.704H201.823L217.199 162.107H211.672Z" fill="#E7B588"/>
<path d="M306.576 134.57C306.576 138.769 305.828 142.633 304.336 146.163C302.839 149.688 300.771 152.735 298.131 155.303C295.486 157.872 292.362 159.878 288.76 161.332C285.158 162.786 281.244 163.51 277.028 163.51C272.813 163.51 268.899 162.786 265.297 161.332C261.694 159.883 258.571 157.872 255.926 155.303C253.281 152.735 251.213 149.693 249.721 146.163C248.224 142.638 247.476 138.773 247.476 134.57C247.476 130.367 248.224 126.507 249.721 122.977C251.213 119.452 253.286 116.405 255.926 113.837C258.571 111.269 261.694 109.262 265.297 107.808C268.899 106.359 272.813 105.63 277.028 105.63C281.244 105.63 285.158 106.359 288.76 107.808C292.362 109.262 295.486 111.269 298.131 113.837C300.775 116.405 302.844 119.452 304.336 122.977C305.828 126.503 306.576 130.367 306.576 134.57ZM300.487 134.607C300.487 131.398 299.953 128.342 298.884 125.444C297.815 122.545 296.267 119.996 294.24 117.794C292.209 115.593 289.741 113.846 286.831 112.55C283.921 111.255 280.649 110.609 277.019 110.609C273.389 110.609 270.117 111.259 267.207 112.55C264.297 113.846 261.829 115.593 259.798 117.794C257.767 119.996 256.219 122.545 255.155 125.444C254.086 128.342 253.551 131.398 253.551 134.607C253.551 137.817 254.086 140.873 255.155 143.771C256.224 146.669 257.772 149.21 259.798 151.383C261.829 153.557 264.297 155.294 267.207 156.585C270.117 157.881 273.384 158.527 277.019 158.527C280.654 158.527 283.917 157.881 286.831 156.585C289.741 155.289 292.209 153.557 294.24 151.383C296.267 149.21 297.819 146.674 298.884 143.771C299.953 140.873 300.487 137.817 300.487 134.607Z" fill="#E7B588"/>
<path d="M345.82 162.107L333.405 132.081L320.432 162.107H314.748L331.164 125.704H335.971L351.346 162.107H345.82Z" fill="#E7B588"/>
<path d="M387.708 162.107L375.293 132.081L362.32 162.107H356.636L373.053 125.704H377.859L393.235 162.107H387.708Z" fill="#E7B588"/>
<path d="M432.394 132.471L409.41 162.107H403.804V125.704H409.41V154.253L432.394 125.704H438V162.107H432.394V132.471Z" fill="#E7B588"/>
<path d="M237.571 4.69548C237.311 2.46147 237.929 0.961294 239.533 0.366796C241.225 -0.264859 242.926 -0.0558554 244.525 0.831247C246.728 2.0574 248.104 4.66762 247.704 6.85518C247.277 9.19138 245.575 10.3479 243.219 9.90663C243.14 9.8927 243.061 9.90663 242.889 9.90663C242.968 10.1389 243.01 10.3339 243.093 10.5104C244.53 13.5294 243.651 17.1381 241.016 19.2282C240.207 19.8691 239.375 20.5379 238.752 21.3461C237.799 22.5908 237.864 24.1607 238.022 25.6004C238.148 26.7337 238.487 27.9506 239.096 28.8981C240.542 31.1599 240.481 33.4218 239.621 35.8091C238.655 38.4797 237.149 40.7834 235.168 42.827C234.22 43.807 233.5 45.0099 232.672 46.1153C232.742 46.1757 232.812 46.236 232.877 46.2964C233.69 45.6694 234.49 45.0285 235.313 44.42C236.679 43.4122 238.143 42.7016 239.914 42.669C241.629 42.6365 241.941 43.6908 241.834 44.9402C241.783 45.5254 241.56 46.1199 241.29 46.6494C240.695 47.8245 240.407 49.0553 240.393 50.365C240.384 51.1035 240.374 51.8513 240.244 52.5758C240.165 53.0402 239.947 53.5279 239.654 53.8902C239.036 54.6612 238.255 54.6194 237.539 53.9459C236.502 52.9706 235.452 52.0045 234.355 51.0988C233.644 50.5136 233.156 50.5136 232.561 50.9131C233.174 51.5772 233.881 52.1624 234.364 52.9009C235.921 55.2789 237.437 57.6941 238.887 60.1371C239.998 62.0135 240.676 62.8541 242.461 64.0292C241.183 64.4379 240.286 65.2135 239.756 66.7369C238.817 65.4968 237.994 64.4054 237.046 63.1514C237.209 63.7459 237.283 64.2103 237.455 64.633C240.179 71.27 242.921 77.8931 245.631 84.5347C245.915 85.2314 245.938 86.0395 246.198 86.7501C246.449 87.4282 246.858 88.046 247.244 88.7752C246.291 89.6576 245.069 90.2242 243.702 90.1546C242.285 90.0849 241.146 90.2986 239.919 91.195C238.236 92.4304 236.107 92.1238 234.109 91.9288C233.597 91.8777 233.091 91.7848 232.626 91.7198C233.091 93.1689 233.681 94.5669 233.969 96.0252C234.36 98.0085 234.522 100.033 234.787 102.04C235.173 104.998 235.973 107.827 237.492 110.419C238.199 111.622 238.464 112.862 237.771 114.148C237.641 114.39 237.307 114.673 237.065 114.678C231.882 114.71 226.695 114.701 221.438 114.701C221.666 113.818 222.303 113.112 223.246 112.862C224.371 112.56 225.556 112.499 226.7 112.276C228.517 111.923 230.223 111.264 231.715 110.163C232.607 109.508 232.775 108.236 232.175 106.838C231.301 104.799 230.33 102.806 229.451 100.767C228.238 97.9527 227.072 95.1149 225.882 92.2911C225.798 92.0913 225.696 91.9056 225.566 91.6362C223.632 92.5326 221.838 91.9752 219.997 91.2971C219.175 90.9952 218.189 90.9441 217.301 91.0185C213.481 91.3296 209.669 91.7987 205.844 92.0635C203.106 92.2539 200.485 91.7802 198.291 89.9084C197.756 89.4533 197.491 88.9749 197.487 88.2318C197.44 82.6119 197.347 76.9874 197.264 71.3675C197.264 71.0656 197.245 70.7637 197.222 70.4618C197.157 69.7559 196.817 69.4911 196.185 69.8255C195.367 70.2575 194.517 70.7266 193.884 71.3768C192.922 72.3614 192.141 73.5179 191.319 74.549C190.491 71.9852 191.37 70.2342 195.627 66.161C194.67 65.822 193.722 65.5247 192.801 65.1578C191.026 64.4518 190.115 63.1653 190.259 61.6326C190.273 61.4747 190.333 61.3214 190.357 61.2471C190.886 61.7719 191.43 62.3014 192.1 62.9609C192.718 61.275 193.731 60.4529 195.604 60.6294C194.819 59.8073 194.149 59.2082 193.61 58.5115C193.066 57.8148 192.574 57.0485 192.206 56.2496C192.025 55.8548 192.174 55.3068 192.174 54.6798C193.155 55.4461 194.005 56.1149 194.856 56.7837C194.94 56.7373 195.019 56.6908 195.102 56.6444C194.902 56.1892 194.763 55.6969 194.493 55.2836C193.987 54.5033 194.108 53.7834 194.549 53.0495C195.023 52.26 195.971 51.5029 196.599 51.8513C197.868 52.5526 198.825 51.8977 199.904 51.6701C199.955 51.6608 200.001 51.6283 200.108 51.5772C199.337 49.3386 199.23 47.0581 199.792 44.5129C200.606 47.1789 201.349 49.6126 202.111 52.1067C202.511 50.1467 202.888 48.2936 203.264 46.4358C203.362 46.445 203.455 46.4543 203.552 46.4636C203.896 47.9638 204.24 49.464 204.621 51.1221C205.783 49.8123 207.155 49.4082 208.689 49.45C210.153 49.4918 211.236 50.2814 211.501 51.5122C211.71 52.4783 211.356 53.2864 210.715 53.9877C210.552 54.1642 210.362 54.3129 210.473 54.2943C210.841 54.7076 211.212 55.1256 211.57 55.5251C212.96 52.7198 213.383 49.3014 215.173 46.459C215.293 46.4915 215.41 46.5194 215.53 46.5519C215.163 48.6558 214.801 50.7644 214.447 52.7848C215.252 51.6933 216.06 50.4533 217.013 49.3339C218.268 47.857 219.37 46.2871 220.313 44.5919C220.643 44.002 221.085 43.4354 221.601 42.9988C222.382 42.3393 222.544 41.5358 222.568 40.5883C222.595 39.2785 222.605 37.9456 222.846 36.6683C223.223 34.6805 224.51 33.2035 225.942 31.8334C227.406 30.4354 228.88 29.0374 230.232 27.5372C230.836 26.8638 231.176 25.9441 231.576 25.1081C231.738 24.7598 231.743 24.3371 231.785 24.1188C230.665 24.0445 229.595 24.1746 228.67 23.868C226.542 23.1528 225.519 20.9141 226.054 18.3875C226.291 17.2635 226.193 16.3486 225.552 15.3128C224.101 12.9674 224.524 10.5847 225.97 8.35536C228.22 4.8952 232.756 3.31142 237.042 4.55615C237.195 4.60259 237.353 4.63975 237.59 4.70013L237.571 4.69548ZM214.526 56.2775C215.047 56.5376 215.321 56.8023 215.596 56.793C216.33 56.7744 216.679 55.7573 217.543 55.9617C218.175 54.7076 218.807 53.449 219.435 52.1949C219.36 52.1346 219.286 52.0788 219.207 52.0185C217.701 53.3886 216.195 54.7587 214.526 56.2775ZM200.773 61.0706C201.289 60.8941 201.233 60.3786 201.252 59.9188C201.293 58.8923 200.396 58.688 199.797 58.1446C200.136 59.1664 200.447 60.0953 200.778 61.0753L200.773 61.0706ZM206.002 54.6983C205.997 54.6054 205.988 54.5079 205.983 54.415C205.691 54.1038 205.398 53.7927 205.105 53.4768C205.026 53.4954 204.947 53.5093 204.868 53.5279C204.951 53.9599 204.993 54.4057 205.151 54.8052C205.179 54.8702 205.704 54.7401 205.997 54.6983H206.002ZM197.045 63.2675C197.291 63.6901 197.468 63.992 197.645 64.2939C197.859 64.1639 198.263 64.0199 198.258 63.8991C198.23 63.3975 197.919 63.1189 197.05 63.2628L197.045 63.2675Z" fill="#E7B588"/>
</g>
<defs>
<clipPath id="clip0_131_2941">
<rect width="438" height="195" fill="white"/>
</clipPath>
</defs>
</svg>
