<svg width="24" height="24" viewBox="0 0 24 24" fill="none" xmlns="http://www.w3.org/2000/svg">
<path d="M9.15311 16.82L8.34593 15.98L15.8469 8.18L16.6541 9.026L9.15311 16.82ZM14.9244 17C14.5439 17 14.196 16.904 13.8808 16.712C13.5695 16.516 13.3197 16.256 13.1313 15.932C12.943 15.604 12.8488 15.24 12.8488 14.84C12.8488 14.448 12.9449 14.088 13.1371 13.76C13.3293 13.432 13.583 13.17 13.8981 12.974C14.2133 12.778 14.5554 12.68 14.9244 12.68C15.3049 12.68 15.6528 12.778 15.968 12.974C16.2832 13.166 16.533 13.426 16.7175 13.754C16.9058 14.078 17 14.44 17 14.84C17 15.24 16.9058 15.604 16.7175 15.932C16.533 16.256 16.2832 16.516 15.968 16.712C15.6528 16.904 15.3049 17 14.9244 17ZM14.9244 15.914C15.1127 15.914 15.2838 15.866 15.4375 15.77C15.5951 15.67 15.7201 15.538 15.8123 15.374C15.9084 15.21 15.9564 15.032 15.9564 14.84C15.9564 14.648 15.9084 14.47 15.8123 14.306C15.7201 14.142 15.5951 14.012 15.4375 13.916C15.2838 13.816 15.1127 13.766 14.9244 13.766C14.7399 13.766 14.5689 13.816 14.4113 13.916C14.2575 14.012 14.1326 14.142 14.0365 14.306C13.9443 14.47 13.8981 14.648 13.8981 14.84C13.8981 15.032 13.9443 15.21 14.0365 15.374C14.1326 15.538 14.2575 15.67 14.4113 15.77C14.5689 15.866 14.7399 15.914 14.9244 15.914ZM10.0756 12.32C9.69507 12.32 9.34721 12.224 9.03203 12.032C8.71685 11.836 8.46509 11.576 8.27675 11.252C8.09225 10.924 8 10.56 8 10.16C8 9.768 8.09609 9.408 8.28828 9.08C8.48046 8.752 8.73414 8.49 9.04933 8.294C9.36451 8.098 9.7066 8 10.0756 8C10.4561 8 10.8021 8.098 11.1134 8.294C11.4286 8.486 11.6803 8.746 11.8687 9.074C12.057 9.398 12.1512 9.76 12.1512 10.16C12.1512 10.56 12.057 10.924 11.8687 11.252C11.6803 11.576 11.4286 11.836 11.1134 12.032C10.8021 12.224 10.4561 12.32 10.0756 12.32ZM10.0756 11.234C10.2601 11.234 10.4311 11.186 10.5887 11.09C10.7463 10.99 10.8712 10.858 10.9635 10.694C11.0596 10.53 11.1076 10.352 11.1076 10.16C11.1076 9.968 11.0596 9.79 10.9635 9.626C10.8712 9.462 10.7463 9.332 10.5887 9.236C10.4311 9.136 10.2601 9.086 10.0756 9.086C9.8911 9.086 9.72005 9.136 9.56246 9.236C9.40871 9.332 9.28379 9.462 9.1877 9.626C9.09161 9.79 9.04356 9.968 9.04356 10.16C9.04356 10.352 9.09161 10.53 9.1877 10.694C9.28379 10.858 9.40871 10.99 9.56246 11.09C9.71621 11.186 9.88725 11.234 10.0756 11.234Z" fill="#191919"/>
<path d="M9 22H15C20 22 22 20 22 15V9C22 4 20 2 15 2H9C4 2 2 4 2 9V15C2 20 4 22 9 22Z" stroke="#191919" stroke-linecap="round" stroke-linejoin="round"/>
</svg>
