<svg width="237" height="117" viewBox="0 0 237 117" fill="none" xmlns="http://www.w3.org/2000/svg">
<path d="M121.69 105.87C121.69 105.79 121.71 105.7 121.71 105.62C121.79 105.34 121.57 105.7 121.47 105.75C118.81 108.09 115.44 110.41 111.83 110.76C110.4 110.76 109.68 109.17 110.28 107.97C112.07 104.57 115.28 102.14 117.97 99.48C118.26 99.21 118.6 98.92 118.88 98.65C115.63 99.14 107.31 100.44 105.15 97.57C103.13 93.37 115.21 92.42 117.71 92.37C116.41 91.66 115.23 90.73 114.22 89.64C114 89.76 113.73 89.83 113.36 89.79C107.46 89.79 101.7 87.86 96.41 85.37C89.3 82.21 83.11 77.44 77.24 72.41C74.58 70.47 72.18 68.22 70.21 65.58C69.65 64.93 69.03 64.32 68.39 63.75C63.3801 63.51 58.38 63.17 53.38 62.78C53.71 62.97 54.01 63.19 54.23 63.5C54.26 63.55 54.25 63.61 54.27 63.67C55.82 64.96 57.29 66.35 58.76 67.73C61.97 70.66 65.15 73.65 67.65 77.22C68.7 78.66 69.75 80.17 70.3 81.88C70.73 82.97 70.23 84.5 68.84 84.26C68.08 84.07 67.3801 83.67 66.67 83.35C62.1601 81.34 57.87 78.04 54.71 74.26C53.11 72.35 51.75 70.22 50.81 67.9C49.86 65.56 49.58 63.05 46.91 62.25C43.6 61.26 39.29 61.58 35.84 61.27C28.3301 60.59 20.82 59.81 13.41 58.39C9.95003 57.74 6.50003 57.05 3.10004 56.13C2.57004 55.98 2.03005 55.84 1.50005 55.67C0.900042 55.55 0.240039 55.25 0.190036 54.56C0.120028 53.89 0.780047 53.3 1.43004 53.44C1.77004 53.5 2.10004 53.63 2.44004 53.71C3.93004 54.1 5.43004 54.45 6.93004 54.78C11.58 55.81 16.28 56.56 21.01 57.14C26.52 57.89 32.07 58.27 37.62 58.67C36.82 57.56 38.6601 56.49 39.36 55.75C41.6301 53.86 44.0801 52.19 46.5 50.49C50.6001 47.63 55.2 45.36 60.05 44.1C62.06 43.53 66.25 42.46 66.16 45.76C65.32 48.84 59.67 52.46 56.87 53.88C52.38 56.15 47.55 57.56 42.76 59.06C51.87 59.84 61 60.52 70.13 60.94C70.28 59.86 71.14 58.53 71.62 57.89C74.39 54.16 78.26 51.4101 81.85 48.51C85.15 46.1701 88.9 44.54 92.58 42.91C93.81 42.41 95.0501 41.9101 96.31 41.5C96.85 41.33 97.4701 41.17 98 41.46C98.7401 41.88 98.75 42.85 98.44 43.55C97.19 46.65 94.64 49 92.18 51.15C87.62 55.2 82.3501 58.3 77.03 61.22C78.25 60.55 82.04 61.34 83.49 61.36C85.79 61.38 88.08 61.38 90.38 61.36C92.98 61.33 95.6 61.84 98.19 61.46C101.42 60.99 102.8 58.48 104.86 56.16C107.66 52.89 110.79 49.92 114.05 47.1C117.35 44.22 121.27 42.15 125.13 40.11C127.73 38.8001 130.45 37.78 133.22 36.88C133.99 36.7 134.87 36.2301 135.7 36.1201C136.41 34.68 137.8 33.71 139.14 32.9001C139.37 32.7601 139.21 32.82 139.08 32.8301C136.52 32.93 133.63 32.67 131.69 30.81C128.67 26.76 134.55 25.4 137.57 25.27C137.95 25.25 138.32 25.25 138.7 25.27C138.88 25.33 138.47 24.9701 138.44 24.89C136.81 23 134.7 18.63 138.71 18.28C141.47 18.57 143.83 20.61 145.61 22.6101C145.61 21.0201 145.57 19 145.89 17.3C146.11 16.33 146.21 15.2201 146.91 14.46C148.97 12.78 150.45 16.0401 150.65 17.75C150.87 18.95 150.89 20.2 150.81 21.41C150.81 21.51 150.76 21.6101 150.85 21.49C151.81 20.2201 152.99 18.9901 154.48 18.3701C157.9 17.1801 158.34 20.98 157.11 23.28C157.01 23.5 156.95 23.5 157.11 23.4301C159.29 22.4401 161.62 21.4701 164.06 21.6C165.52 21.6501 166.92 22.78 166.88 24.31C166.67 27.5001 162.83 29.5401 160.24 30.7201C162.41 31.4301 167.51 34.1 165.94 36.95C163.89 39.58 159.75 38.78 157.15 37.4301C157.11 37.4101 156.62 37.1201 156.6 37.14C156.6 37.14 156.66 37.37 156.67 37.38C157.23 39.76 158.02 42.6501 156.68 44.89C153.77 47.9001 150.38 43.2901 149.52 40.6C148.68 42.9701 147.35 45.53 145.03 46.73C142.62 47.73 141.27 44.92 141.65 42.89C141.83 41.23 142.5 39.68 143.21 38.1901C143.26 38.0801 143.19 38.1501 143.13 38.1901C142.07 38.6901 140.97 39.1 139.83 39.4001C138.18 39.9101 136.08 39.5101 135.53 38.11C130.5 40.0901 125.66 42.48 121.05 45.31C118.57 46.71 116.27 48.41 114.17 50.32C110.99 52.9 108.27 55.96 105.3 58.76C104.6 59.41 103.9 60.07 103.2 60.72C103.05 60.86 102.89 60.96 102.7 61.01C110.75 60.71 118.81 60.23 126.85 59.74C128.12 59.37 129.38 59.01 130.66 58.67C137.6 56.89 144.41 54.64 151.16 52.27C157.19 50.19 162.8 47.1101 168.45 44.1801C176.4 40.2601 184.44 36.4701 191.75 31.4001C192.58 30.8801 195.44 28.86 197.49 28.16C198.23 26.33 200.38 25.4801 202.04 24.6801C198.44 24.5001 191.94 24.0001 190.22 20.2901C189.33 15.9701 197.31 16.5301 199.91 16.9301C198.42 15.7301 197.09 14.2801 195.96 12.73C195.51 12.06 194.97 11.4001 194.83 10.5801C194.52 8.82005 196.51 7.79005 198.02 8.21005C200.91 9.05005 203.16 11.2701 205.36 13.2201C205.51 13.4101 205.36 13.07 205.36 12.98C204.56 9.44005 205.04 2.38006 208.27 0.190055C209.39 -0.399942 210.66 0.250052 211.44 1.10005C213.37 3.12005 213.2 6.13006 213.07 8.72005C213.07 8.98006 213.01 9.34006 213.02 9.58005C213.02 9.58005 213.54 8.83005 213.58 8.77005C215.13 6.54005 217.08 4.46005 219.71 3.56005C221.74 2.67005 224.98 2.90005 224.78 5.78005C224.68 7.02005 224.02 8.18005 223.39 9.23005C222.06 11.3801 220.55 13.4401 218.75 15.2101C222.05 14.4901 225.48 13.4101 228.88 13.9301C230.17 14.1301 230.59 15.51 230.04 16.59C228.61 18.94 225.54 19.45 223.11 20.2801C224.96 20.87 226.67 21.9601 228.1 23.2601C229 23.9201 229.25 25.27 228.42 26.09C226.72 27.5701 224.21 27.5001 222.08 27.6701C221.82 27.6801 221.54 27.6701 221.29 27.6901C221.55 27.9101 221.88 28.1401 222.17 28.3601C223.6 29.5601 225.76 31.1101 225.16 33.2501C224.76 34.4401 223.44 35.0201 222.28 35.1501C218.25 35.4401 214.85 32.4701 212.08 29.8901C211.72 32.4901 210.54 35.1001 208.66 36.95C207.7 37.6701 206.33 37.1301 205.87 36.0801C205.08 34.3201 205.71 32.3 206.37 30.59C206.62 29.99 206.89 29.3901 207.2 28.81C207.23 28.74 207.23 28.77 207.1 28.81C206.95 28.87 206.8 28.9201 206.65 28.9701C204.2 29.81 201.59 30.5901 198.97 30.4001C198.57 30.3701 198.25 30.17 197.98 29.92C197.25 30.23 196.55 30.6001 195.87 30.99C191.66 33.7201 187.59 36.68 183.18 39.09C180.24 40.77 177.18 42.2201 174.14 43.6901C178.72 43.5501 183.3 43.88 187.85 44.3601C189.97 44.7501 194.76 44.6601 195.64 46.9401C196.06 48.1401 194.75 48.73 193.81 48.99C192.47 49.42 191.09 49.7501 189.68 49.8601C184.18 50.1901 178.59 49.4001 173.31 47.8701C172.18 47.4001 170.29 47.06 169.48 46.02C166.63 47.48 163.81 48.9801 160.93 50.3701C156.33 52.6801 151.45 54.32 146.56 55.9C142.93 57.12 139.26 58.2 135.57 59.21C137.69 59.08 139.81 58.96 141.93 58.84C156.12 58.08 170.33 57.84 184.5 56.85C189.31 56.56 194.12 56.15 198.94 56.1C199.1 56.1 199.25 56.1 199.41 56.1C197.12 54.42 195 52.27 195.21 49.8C196.88 45.3501 202.9 50.4301 204.99 52.2C204.13 50.29 203.62 48.13 203.93 46.0301C204.18 44.3201 205.53 42.8 207.29 43.84C208.35 44.4601 208.96 45.59 209.55 46.63C210.39 48.2 211.12 49.8301 211.83 51.4601C211.88 51.6201 211.87 51.27 211.91 51.2C212.25 49.31 214.85 42.6601 216.98 42.6801C220.37 42.7501 219.66 50.5101 219.53 52.8701C220.95 51.0301 222.98 48.8601 225.16 47.5401C226.41 46.7301 227.7 45.98 229.04 45.34C229.76 44.9201 230.83 44.69 231.28 45.6001C232.12 47.9301 229.14 51.6301 227.45 53.1C228.74 52.54 230.06 51.7101 231.51 52.0601C234.01 52.3901 233.95 55.6501 232.91 57.3601C231.73 59.4001 229.49 60.43 227.43 61.37C227.33 61.42 227.22 61.46 227.12 61.51C227.05 61.54 227.06 61.5301 227.15 61.5401C228.2 61.6901 229.25 61.8801 230.27 62.16C232.62 62.94 236.57 63.71 236.79 66.68C236.79 67.85 236 68.87 234.95 69.33C230.63 71.14 225.59 70.08 221.32 68.64C223.15 71.79 226.24 74.48 226.92 78.18C226.94 80.37 224.36 80.34 222.89 79.62C220.53 78.68 218.84 76.66 217.48 74.58C217.23 74.17 216.95 73.77 216.71 73.34C216.64 73.22 216.67 73.32 216.68 73.39C216.71 74.09 216.71 74.78 216.68 75.48C216.5 77.3101 216.34 83.45 214.3 83.87C213.15 84.18 212.24 83.1901 211.72 82.29C209.86 78.89 209.58 74.86 209.35 71.07C207.12 73.77 203.66 75.53 200.16 75.78C197.15 75.84 197.28 72.59 198.75 70.8C200.25 68.85 202.34 67.47 204.34 66.1C201.27 66.33 196.83 66.77 194.85 63.67C193.77 59.88 200.28 58.71 202.91 58.42C202.75 58.33 202.59 58.23 202.42 58.12C196.32 58.24 190.25 58.84 184.17 59.32C176.22 59.98 168.26 60.34 160.29 60.66C161.18 60.96 162.07 61.26 162.95 61.6C167.33 63.29 171.64 65.29 175.44 68.09C178.37 70.27 181.68 72.37 183.41 75.71C183.95 76.74 184.08 78.11 183.23 79.01C181.67 80.44 179.31 79.4 177.54 78.94C173.95 77.68 171.07 75.03 168.06 72.79C165.4 70.75 162.82 68.58 160.67 65.99C158.62 63.51 157.14 60.81 153.57 60.94C149.3 61.09 145.04 61.31 140.78 61.55C133.69 61.94 126.61 62.43 119.53 62.87C124.73 64.19 129.7 66.31 134.56 68.56C137.38 69.99 148.69 74.14 148.84 77.2C148.78 78.13 147.78 78.46 146.98 78.39C144.45 78.38 141.9 78.11 139.41 77.64C130.82 76.01 122.43 72.5 115.79 66.74C114.78 65.87 113.81 64.95 112.91 63.96C112.73 63.73 112.51 63.51 112.3 63.29C104.26 63.75 96.21 64.11 88.15 64.16C82.78 64.19 77.42 64.06 72.06 63.85C71.85 63.98 71.64 64.11 71.45 64.26C71.37 64.35 71.28 64.38 71.2 64.42C71.71 64.99 72.21 65.57 72.73 66.15C74.39 67.93 76.42 69.3 78.36 70.75C84.15 75.42 90.14 79.93 96.99 82.96C102 85.37 107.33 87.38 112.9 87.95C111.7 86.13 109.29 81.52 112.32 81.06C112.97 81.06 113.58 81.36 114.13 81.67C116.18 82.87 118.06 84.4 119.86 85.93C119.53 84.52 117.76 80.66 119.94 79.97C122.15 79.52 124.11 84.48 125.05 86.11C125.12 86.25 125.2 86.47 125.27 86.59C125.27 86.59 125.53 85.81 125.55 85.76C126.31 83.78 127.65 80.2 129.81 79.5C131.85 79.3 132.46 81.84 132.56 83.43C132.71 85.54 132.25 87.65 131.3 89.53C131.28 89.57 131.16 89.78 131.17 89.8C133.48 88.58 135.97 86.94 138.7 87.21C140.81 87.48 141.11 89.77 139.93 91.24C139.09 92.48 137.87 93.38 136.62 94.17C139.4 93.99 142.28 94.14 144.87 95.23C145.86 95.7 147.46 96.24 147.16 97.62C146.49 100.13 135.52 101.31 133.06 101.12C135.8 103.32 138.37 105.96 139.67 109.28C139.91 110.58 138.46 111.22 137.37 111.15C133.84 110.97 130.75 108.82 127.96 106.83C128.58 109.29 128.76 117.85 124.66 116.88C120.98 115.23 121.46 109.24 121.67 105.86L121.69 105.87Z" fill="#E7B588"/>
</svg>
