<svg width="220" height="62" viewBox="0 0 220 62" fill="none" xmlns="http://www.w3.org/2000/svg">
<path d="M5.19003 1.93115C9.06628 3.63839 12.9794 5.34562 16.4681 7.78585C21.3226 10.8477 25.4758 14.8467 29.9704 18.3911C31.0871 19.2633 32.1853 20.1447 33.2928 21.0169C33.3205 21.0169 33.3575 21.0169 33.3851 21.0262C34.1235 21.1654 34.8526 21.3324 35.5817 21.4623C42.9558 23.2066 49.7485 20.0519 56.0151 16.4519C58.387 15.0787 60.7219 13.5106 63.4261 12.9354C62.6785 12.4622 63.0846 11.5251 63.4076 10.8941C63.703 10.2168 64.0352 9.54875 64.3859 8.89926C65.4104 7.08069 66.4717 5.06727 68.3268 3.98169C70.1726 3.04457 72.1476 2.35795 74.2057 2.12599C77.2237 1.71774 80.2601 2.07033 83.278 2.28374C84.2102 2.50642 86.5636 2.00538 86.702 3.29508C86.739 3.63839 86.4898 3.89818 86.2775 4.13942C85.9453 4.53839 85.6038 4.92809 85.2623 5.31778C82.2074 9.11266 77.759 11.4694 73.0798 12.5735C71.1878 13.0282 69.2589 13.3344 67.3392 13.6962C64.9581 14.1509 62.4755 14.4849 60.362 15.756C53.3017 20.0705 45.2539 24.7747 36.6892 23.1231C36.3662 23.0674 36.0524 22.9932 35.7386 22.9283C37.0399 23.9396 38.3504 24.9602 39.6979 25.9252C43.9618 28.7644 48.5579 31.1118 53.4032 32.7727C57.5748 34.1459 61.894 34.9253 66.2317 35.4913C69.1297 35.881 72.0277 36.048 74.9348 36.0665C76.1623 35.7418 77.3898 35.3892 78.5896 34.9995C81.423 34.0624 84.3117 33.1438 86.8959 31.6036C88.1233 30.7871 89.2862 29.8685 90.4398 28.95C89.0001 26.3242 90.4952 22.1489 91.4182 19.4952C93.3378 14.7539 97.934 11.8405 102.632 10.3931C103.73 10.0127 106.351 9.18689 105.714 11.3209C105.05 13.7612 104.348 16.2014 103.296 18.5024C101.653 22.5014 98.2939 25.285 94.7868 27.5953C92.3042 29.3304 89.9969 31.2974 87.505 33.0046C85.4377 34.3129 83.1396 35.1758 80.8231 35.9273C88.2249 35.5284 95.6267 34.4057 102.955 33.4964C107.948 32.8098 112.941 32.0953 117.934 31.3716C120.149 30.5273 122.299 29.4974 124.311 28.2355C125.714 27.4469 126.95 26.3891 127.947 25.118C128.418 24.5149 128.898 23.9025 129.341 23.2808C128.169 22.9839 127.061 22.4179 126.148 21.6107C121.967 18.0478 124.819 13.1395 127.698 9.79926C128.769 8.48172 133.346 3.57343 135.035 4.47344C135.644 4.89097 135.395 5.68892 135.284 6.29201C135.146 7.01573 134.989 7.73946 134.814 8.4539C134.325 10.4302 133.771 12.4158 133.595 14.457C133.42 16.554 133.559 18.7437 132.589 20.6829C131.5 22.9561 129.922 24.9602 128.261 26.8345C126.683 28.486 124.689 29.6458 122.65 30.6757C129.692 29.6273 136.715 28.5046 143.72 27.2427C147.227 26.584 150.716 25.8695 154.186 25.0808C157.111 24.4221 158.865 23.6612 160.849 21.2303C163.258 18.2798 164.725 15.1436 166.23 11.7292C167.457 8.93637 169.848 5.72603 172.681 4.44561C175.579 3.13735 178.846 3.40642 181.938 3.04456C182.732 2.97961 183.516 2.8126 184.31 2.71982C184.688 2.66414 185.113 2.66414 185.39 2.97033C186.119 3.71261 184.614 5.19716 184.227 5.93015C182.492 8.42605 180.332 10.7457 177.545 12.0354C175.865 12.8055 174.065 13.288 172.247 13.5849C170.715 13.9189 169.1 13.789 167.577 14.1323C165.27 16.4612 164.246 19.7457 162.104 22.1953C161.92 22.3808 161.468 22.8911 160.905 23.4571C161.578 22.7705 164.55 22.6499 165.519 22.4458C167.19 22.0932 168.86 21.7499 170.531 21.4159C174.748 20.5622 177.942 20.6365 181.255 17.5653C183.793 15.2086 184.633 11.5807 187.06 9.13122C190.678 5.48479 196.215 5.28067 201.024 5.73531C202.565 6.13428 201.762 7.32192 201.024 8.09203C199.833 9.44668 198.56 10.8199 196.917 11.6271C194.093 12.9168 190.862 12.7034 187.881 13.4179C186.322 13.8075 185.297 15.1529 184.328 16.3406C183.479 17.3797 182.584 18.4282 181.523 19.254C186.331 18.3076 191.139 17.3241 195.911 16.1921C205.048 14.4385 207.078 16.6096 215.089 19.486C216.123 19.82 217.184 20.0705 218.273 20.0705C218.753 20.0798 219.371 20.0055 219.75 20.3581C220.11 20.7293 220.073 21.3416 219.694 21.7035C215.163 26.287 209.164 30.3139 202.759 26.8901C200.009 25.5912 197.683 23.587 195.32 21.7035C194.665 21.1653 194.037 20.6086 193.437 20.0055C193.105 19.6437 192.653 19.2354 192.644 18.7066C187.392 20.0427 182.104 21.1932 176.816 22.353C178.588 23.0396 180.886 24.654 181.495 25.0345C181.762 25.22 182.012 25.4149 182.27 25.619C182.353 25.6561 182.565 25.554 182.704 25.5355C185.639 24.8396 188.767 24.7004 191.665 25.6097C193.603 26.2035 195.339 27.2798 197.046 28.3561C197.369 28.5695 197.747 28.6994 198.033 28.9685C198.32 29.2747 198.347 29.8221 198.043 30.119C197.406 30.583 196.575 30.7036 195.828 30.9448C192.108 32.0582 187.697 32.3366 184.42 29.8964C183.156 28.885 182.076 27.651 180.784 26.6767C179.012 25.4149 177.231 24.0231 175.21 23.2159C174.961 23.2066 174.748 23.0489 174.674 22.8076C168.989 24.0509 163.313 25.3128 157.693 26.8159C154.343 27.6881 150.974 28.4768 147.587 29.1912C149.165 30.0634 150.531 31.316 151.758 32.6242C151.805 32.6892 151.758 32.5129 151.805 32.485C151.925 32.049 152.368 31.9191 152.755 31.8634C158.57 30.3046 163.766 31.6964 168.694 34.9902C170.687 36.3727 172.681 37.7552 174.601 39.2397C175.653 39.88 175.302 41.1325 174.056 41.0026C170.586 41.448 167.051 41.9026 163.609 41.0026C160.222 40.2511 156.733 39.3325 154.066 36.9758C151.029 34.6748 148.916 30.8891 145.187 29.6644C136.069 31.5015 126.858 32.8747 117.647 34.1923C112.645 34.8974 107.625 35.5469 102.604 36.1315C104.404 36.6789 106.12 37.514 107.698 38.5346C109.517 39.6016 111.224 40.8635 112.47 42.5985C112.636 42.7748 112.71 43.0717 112.941 43.1645C114.103 43.4522 115.294 43.6006 116.457 43.879C118.367 44.2965 120.241 44.8346 122.096 45.4377C123.554 45.9109 125.022 46.5048 126.184 47.5439C127.818 49.1398 128.575 51.3945 129.553 53.4079C130.624 55.8296 131.768 58.2327 132.811 60.6544C133.134 62.9461 126.775 60.8771 125.566 60.5152C122.862 59.6801 120.093 58.2698 118.635 55.7368C117.906 54.3821 117.168 53.0182 116.355 51.7007C115.054 49.5666 113.485 47.6182 112.368 45.3728C111.409 43.7305 110.236 42.1161 108.603 41.1047C106.388 39.6851 104.145 38.2006 101.589 37.4583C100.546 37.1428 99.4844 36.9109 98.4046 36.7717C98.2477 36.7717 98.1001 36.7346 97.9709 36.6603C94.7868 37.0036 91.6027 37.3284 88.4187 37.616C82.0136 38.1727 75.5717 38.6274 69.1574 38.0057C68.4006 37.9222 67.6438 37.8201 66.887 37.7274C67.9945 38.5903 69.0282 39.5367 69.7665 40.7429C70.7817 42.6171 72.886 43.4243 74.9256 43.3779C79.9186 43.2944 84.847 45.3542 88.1141 49.1862C89.4708 50.6615 90.7906 52.1739 92.055 53.7327C92.5441 54.4471 93.264 55.0595 93.5593 55.8853C93.6885 57.342 91.9258 56.9059 91.0121 56.8595C85.6591 56.377 79.2356 57.8894 75.0364 53.6584C72.5168 51.144 70.7356 47.6831 70.5049 44.1202C70.5418 44.0181 70.5879 43.9254 70.6525 43.8511C70.7448 43.7398 70.7633 43.7955 70.6248 43.712C69.1666 42.8769 68.5944 41.1975 67.3946 40.0934C66.3333 39.1191 65.1889 38.247 64.0629 37.3562C60.6204 36.8645 57.1964 36.215 53.8739 35.1758C46.6382 32.9768 39.8733 29.2376 34.0497 24.3943C31.1978 22.121 28.3645 19.82 25.6142 17.4169C24.6267 16.5447 23.6391 15.6632 22.6424 14.7818C23.1038 15.4684 23.5468 16.1643 23.9252 16.9066C25.9649 20.386 27.8015 24.0973 28.1522 28.1706C29.7027 28.6809 31.3455 29.0613 32.8222 29.8036C36.5138 31.6593 38.8211 35.6212 39.5779 39.6016C39.984 41.7913 40.2332 44.2872 38.8119 46.18C37.2152 48.147 36.5969 50.0491 34.1419 47.7017C32.7206 46.3563 31.6316 44.6769 30.6164 43.0068C28.7152 40.047 27.1647 36.7346 27.4046 33.1345C27.3954 31.6129 27.1185 30.1098 26.8786 28.6067C26.6202 26.6211 26.2971 24.6355 25.4481 22.8076C24.3498 20.1633 23.0392 17.5839 21.4795 15.1808C20.5289 13.8632 19.4952 12.5921 18.4616 11.3395C18.0463 11.024 17.6402 10.6993 17.2156 10.4024C13.6993 7.66523 9.6662 5.78171 5.59613 4.04664C4.05485 3.36004 2.50433 2.66415 0.999982 1.89404C0.566205 1.70847 0.0493901 1.46723 0.00324746 0.929079C-0.0428951 0.428042 0.40933 -0.0265979 0.898481 0.00123791C1.16612 0.0197964 1.4153 0.177534 1.65526 0.288874C2.81813 0.827024 3.97178 1.40228 5.14389 1.93115L5.19003 1.93115Z" fill="#E7B588"/>
</svg>
