<svg width="220" height="73" viewBox="0 0 220 73" fill="none" xmlns="http://www.w3.org/2000/svg">
<path d="M78.5493 5.26939C79.2839 6.52279 79.1737 8.04149 79.036 9.41382C78.7789 12.3323 77.1995 15.0221 75.3262 17.3002C72.7826 20.3742 68.7605 22.3686 64.5824 22.021C62.8744 21.8014 61.5429 23.1005 60.193 23.8965C58.4575 25.0767 56.8322 26.4033 54.9772 27.4188C53.609 28.169 52.1765 28.8094 50.6797 29.2943C50.7991 29.3675 50.9276 29.4498 51.047 29.523C52.4428 30.4196 53.8202 31.3711 55.216 32.2677C57.6311 33.759 60.1379 35.1038 62.4244 36.7872C63.4621 37.5557 64.4997 38.3334 65.5374 39.111C65.8955 38.9006 66.2445 38.681 66.5934 38.4523C68.3565 37.263 69.9727 35.8723 71.699 34.6464C72.5714 34.0517 73.4805 33.3198 74.564 33.2009C72.8101 31.7371 71.0838 29.6511 71.0654 27.1992C71.047 23.6861 72.553 20.054 75.2344 17.7393C77.5668 15.5161 80.845 14.8666 83.9029 14.2719C85.1884 14.034 86.4924 13.7687 87.8055 13.9608C90.0461 14.3817 92.3418 15.1959 93.9763 16.8336C97.0801 20.1637 96.5016 25.4701 94.6099 29.2669C94.2242 30.0354 93.7651 30.7764 93.2693 31.49C94.7201 31.4077 96.2261 31.3711 97.6678 31.6181C97.3739 29.4407 96.8597 27.2084 97.5117 25.0309C98.6044 21.1793 101.469 17.7118 105.152 16.0651C108.182 14.7385 112.241 15.1959 114.509 17.721C117.365 21.0969 117.842 26.5222 115.097 30.0994C113.581 32.1396 111.387 33.576 109.128 34.7013C105.749 36.3572 101.616 35.7077 98.531 33.6949C97.3739 32.6977 94.8579 32.6245 93.407 32.78C91.5613 32.9813 90.8634 34.3811 89.3115 35.3143C87.677 36.2932 86.0057 36.6408 84.1232 36.7049C82.4244 36.7598 80.7073 36.65 79.0911 36.1102C77.5484 35.7168 76.07 34.5915 74.4355 34.8202C73.4345 35.1221 69.6237 38.617 66.9699 40.1357C69.4309 41.938 71.9469 43.6672 74.6375 45.1127C79.0176 47.1803 83.8569 48.0678 88.4667 49.4859C91.148 50.1903 93.8018 51.0229 96.5199 51.5992C99.4125 52.1665 102.369 52.4318 105.317 52.5599C108.852 52.7154 112.406 52.6422 115.923 53.0356C116.492 53.0905 117.062 53.1271 117.631 53.1454C117.695 53.0722 117.76 53.0173 117.861 52.9899C118.063 52.9075 118.265 52.9899 118.457 53.0448C118.641 53.0814 118.825 53.0814 119.008 53.0905C119.155 53.0814 119.302 53.0905 119.44 53.0722C119.725 53.0448 120.074 52.9716 120.34 53.1088C120.386 53.1088 120.432 53.1088 120.478 53.1088C120.441 52.8069 120.487 52.4775 120.496 52.1939C120.615 49.8427 121.772 47.4274 123.94 46.3295C123.379 45.3963 123.003 44.3533 122.516 43.3744C121.267 41.9655 120.037 40.4468 119.78 38.5164C118.816 33.7315 123.747 29.3949 127.631 27.4737C130.827 26.1837 134.738 26.1562 137.833 27.739C140.496 29.1022 140.606 32.3958 140.202 35.0032C139.596 38.9098 137.659 43.841 133.609 45.2408C132.388 45.6159 131.102 45.6891 129.853 45.9269C127.87 46.3203 125.896 47.0065 124.142 48.0129C122.544 49.1473 122.066 51.1326 121.864 52.9807C122.865 52.8526 123.848 52.6605 124.83 52.4592C129.302 51.4895 135.758 48.9003 138.999 53.3101C140.248 53.2094 141.497 53.1088 142.737 52.9624C146.759 52.4958 150.762 51.8188 154.702 50.8765C156.254 50.5014 157.98 50.4007 159.523 49.8335C160.285 49.5499 161.267 49.2114 161.736 48.4886C162.516 47.2993 162.02 47.4182 161.414 46.7137C161.341 46.6314 161.405 46.6771 161.286 46.604C160.45 46.1465 159.541 45.8446 158.604 45.6891C156.759 45.5335 154.83 45.5061 153.196 44.5089C151.047 42.8529 149.376 40.3004 149.33 37.5374C149.008 34.3079 151.212 31.1332 154.307 30.1909C156.116 29.9622 157.952 31.1515 158.935 32.6153C159.027 32.7709 159.137 32.9173 159.247 33.0636C159.578 31.1515 160.092 29.2852 160.726 27.4554C161.323 25.7994 161.892 23.7867 163.609 22.9724C165.381 22.1765 167.401 23.3567 168.568 24.6833C169.477 25.7994 169.725 27.2541 169.991 28.6264C170.836 32.7343 169.018 36.7872 166.915 40.2272C166.355 41.1878 165.739 42.1485 164.996 42.981C164.592 44.1704 164.252 45.3963 163.995 46.6223C163.829 47.1712 163.903 47.8299 163.554 48.3056C164.904 47.8665 166.263 47.4274 167.613 47.0065C167.76 43.9874 169.036 41.0232 170.276 38.2876C171.754 35.0581 174.077 32.9813 177.732 34.5183C180.505 35.3966 182.516 37.5557 184.298 39.7423C185.28 39.1019 186.272 38.4523 187.282 37.8485C187.466 37.6747 187.714 37.5557 187.989 37.6289C187.76 35.0764 188.705 32.4415 190.239 30.4105C192.388 27.5926 195.905 26.0282 199.33 25.3969C200.074 25.4152 200.487 26.0007 200.781 26.6411C201.543 25.7903 202.25 24.8571 203.187 24.1618C203.26 24.1069 203.334 24.052 203.407 23.9971C203.453 23.9605 203.499 23.9605 203.444 23.9148C203.214 23.7135 202.966 23.5305 202.727 23.3384C201.488 22.332 200.469 21.042 199.817 19.5782C198.825 17.3733 198.816 14.8299 199.468 12.5244C200.404 9.26744 203.425 7.11746 206.437 5.88236C211.295 3.87875 218.761 5.123 219.872 11.0789C220.478 14.5372 219.018 18.1327 216.896 20.8225C214.619 23.4665 210.863 24.0795 207.567 24.4454C206.584 24.5369 205.556 24.5826 204.647 24.976C203.673 25.4884 203.012 26.4582 202.232 27.2084C202.02 27.4279 201.772 27.7299 201.488 27.9037C201.543 27.9311 201.598 27.9677 201.635 28.0226C201.727 28.2147 201.782 28.4252 201.855 28.6264C203.526 27.9128 206.621 27.7116 207.558 27.6567C212.323 27.2633 214.059 32.4324 211.387 35.8266C209.826 37.5923 207.475 38.3425 205.271 38.983C204.536 39.1934 203.783 39.3764 203.021 39.4404C202.957 39.4404 202.893 39.4404 202.819 39.4404C202.314 41.6636 201.304 43.8227 199.155 44.765C197.585 45.5061 195.776 45.3963 194.142 44.948C191.497 44.3533 189.33 42.3131 188.485 39.7606C188.393 39.5136 188.329 39.2574 188.265 39.0104C188.164 39.1019 188.053 39.1934 187.943 39.2757C187.126 39.8887 186.263 40.4376 185.4 40.9683C185.317 41.0232 185.207 41.0689 185.133 41.1329C185.133 41.2153 185.133 41.2976 185.152 41.3708C185.308 44.2801 187.236 47.1163 186.189 50.0348C185.143 53.3467 181.754 55.2222 178.66 56.3201C173.829 58.0583 169.348 55.4143 168.053 50.5654C167.851 49.9158 167.75 49.2571 167.686 48.6076C167.218 48.8088 166.731 48.9918 166.272 49.1931C160.808 51.2607 155.133 52.7063 149.394 53.7767C146.401 54.3622 143.379 54.8562 140.331 55.0484C140.211 55.0484 140.083 55.0484 139.945 55.0484C140.615 56.8507 140.726 58.8634 141.093 60.7481C141.873 64.5906 136.906 65.4598 134.041 65.3317C131.782 65.1213 129.477 64.5906 127.567 63.3189C124.895 61.5898 123.802 58.3328 123.627 55.2862C123.6 54.9203 123.6 54.5452 123.536 54.1884C123.536 54.1426 123.517 54.1335 123.462 54.1701C122.406 54.3165 121.35 54.4079 120.276 54.4171C119.973 54.4079 119.66 54.3988 119.348 54.3805C119.155 54.4262 118.963 54.472 118.761 54.4994C116.704 54.7464 114.628 54.3805 112.571 54.3256C111.148 54.2707 109.725 54.3256 108.301 54.3348C104.564 54.3348 100.808 54.2982 97.0985 53.7675C93.4345 53.1637 89.8716 52.075 86.2812 51.1509C84.362 50.5654 82.4061 50.0805 80.4593 49.5407C80.6613 50.3824 81.1021 51.1784 81.497 51.9378C81.9653 52.7977 82.4428 53.6669 83.0764 54.4171C84.6008 56.4298 87.126 57.116 89.5043 57.5094C91.2307 55.7894 94.4263 55.0026 96.6118 56.2652C97.3739 56.7409 97.6402 57.8296 97.0709 58.5524C95.7853 60.007 93.5172 59.513 91.8 59.3758C91.3133 59.3026 90.8358 59.2385 90.3491 59.1562C90.239 59.083 90.2481 59.2294 90.2114 59.2934C89.5227 61.3519 90.2114 63.5202 90.4134 65.6062C90.6338 67.5 90.6246 69.4578 89.9084 71.2602C89.7247 71.681 89.6237 72.1842 89.2839 72.5044C88.733 72.9618 87.8698 72.3855 88.0718 71.7084C88.4024 70.8576 88.7513 69.9976 88.8891 69.0919C89.4584 65.6793 87.7045 62.2119 88.733 58.8543C86.2169 58.3968 83.6549 57.4545 82.0112 55.4143C81.3409 54.6275 80.7991 53.7401 80.3216 52.8252C79.7247 51.6633 79.1003 50.4465 79.0268 49.1108C77.1995 48.5618 75.4088 47.9305 73.7008 47.0797C73.3335 46.8876 72.9846 46.668 72.6173 46.4576C72.7734 47.1254 72.9478 47.8025 73.0856 48.4703C73.9763 53.2918 75.8863 57.2166 73.058 61.8368C71.1664 65.2219 67.8423 67.5823 64.0773 68.4789C59.2656 70.1257 53.8753 68.4789 51.4419 63.877C50.1012 61.3153 50.6705 58.2413 51.8551 55.7345C54.261 50.6112 59.5594 47.0614 64.9956 45.8172C66.6118 45.4146 68.2555 45.1035 69.89 44.8016C67.98 43.5574 66.1159 42.24 64.2243 40.9591C61.4327 38.8091 58.531 36.8147 55.4731 35.0672C52.957 33.5851 50.6797 31.7279 48.1636 30.2549C43.8569 27.9952 39.6237 25.5341 35.115 23.6952C31.7082 22.2314 28.1361 21.2433 24.5824 20.2369C21.8092 19.3312 19.2013 17.9772 16.3363 17.355C13.3795 16.7329 10.5328 15.7723 7.73205 14.6561C6.14345 13.9791 0.376691 12.5885 0.0369388 10.96C-0.100802 10.2372 0.551175 9.52361 1.28579 9.60595C1.6531 9.62425 1.9194 9.89872 2.25915 10.0085C4.25181 10.7587 6.30874 11.3442 8.32895 12.0487C10.3216 12.8081 12.3326 13.5125 14.3895 14.0889C15.4456 14.034 16.5016 13.9791 17.5484 13.8876C21.3776 13.4119 25.3997 13.0185 28.834 11.1521C26.7312 11.2345 25.0691 9.26745 25.5374 7.19981C25.9598 4.89429 27.5484 4.70216 29.4309 5.6079C30.8083 6.23003 32.1673 7.32788 32.5438 8.85574C32.5438 8.97468 32.7183 8.77341 32.8101 8.70937C33.7559 7.69384 34.1692 6.29407 34.6283 5.01322C34.6926 4.81195 34.7844 4.63812 34.9681 4.52834C35.5558 4.16238 36.2812 4.81195 36.0057 5.44322C35.6017 6.74236 35.1242 8.05064 34.3436 9.17595C33.8753 9.85297 33.1958 10.3653 32.4152 10.6032C32.2041 10.6215 32.1398 10.8045 32.0204 10.9417C28.632 14.098 23.7743 14.7293 19.339 15.2051C19.1095 15.2325 18.8799 15.2325 18.6595 15.2508C20.5328 15.8912 22.351 16.6963 24.1967 17.4282C29.7339 19.2031 35.3445 20.8774 40.4593 23.7135C42.9846 25.1133 45.5374 26.4673 48.1178 27.7848C48.4851 27.9769 48.834 28.2056 49.1921 28.416C49.3299 28.3154 49.4951 28.2513 49.6788 28.2788C51.9929 27.5377 54.16 26.4124 56.171 25.1041C58.283 23.7044 60.2573 22.0667 62.5897 20.9871C54.0865 17.3367 55.0507 9.88042 60.3032 3.90621C65.2711 -1.74779 74.7017 -1.27205 78.5677 5.26939L78.5493 5.26939ZM94.4722 58.0675C94.9313 58.0309 95.5466 58.04 95.8588 57.6649C95.8588 57.61 95.721 57.5369 95.6935 57.5186C94.4263 56.9879 92.9203 57.3081 91.7082 57.8571C92.3785 58.04 93.609 58.0858 94.4722 58.0675ZM30.9644 9.42298C30.7991 7.97746 28.7422 6.7881 27.429 6.60513C26.9515 7.09917 26.9056 8.10554 27.1903 8.71851C27.8331 10.0451 29.7982 9.62425 30.9644 9.42298Z" fill="#E7B588"/>
</svg>
