<svg width="223" height="99" viewBox="0 0 223 99" fill="none" xmlns="http://www.w3.org/2000/svg">
<path d="M204.996 92.6162C204.274 90.6156 201.94 89.5969 199.927 89.5656C199.566 89.6001 199.054 89.6886 198.663 89.891C198.562 89.7726 198.471 89.652 198.413 89.535C197.702 88.2434 197.603 86.7232 197.383 85.2938C196.748 80.0624 195.963 74.6906 193.128 70.1255C190.531 65.6064 187.135 61.5606 183.406 57.9312C183.354 57.8886 183.301 57.846 183.249 57.8034C184.253 57.329 185.353 57.1468 186.446 56.9874C188.149 56.6864 189.868 56.4575 191.612 56.4494C192.805 56.4518 193.994 56.5308 195.18 56.6532C195.391 56.8774 195.703 56.8644 196.046 56.7475C199.916 57.2424 203.711 58.3028 207.382 59.6381C209.485 60.189 211.538 60.9659 213.454 62.0096C213.213 62.4496 213.139 63.0151 213.087 63.4791C212.756 65.8783 214.346 68.3825 216.853 68.6957C219.232 69.0686 222.154 67.9778 222.556 65.3583C222.876 63.7159 222.595 61.8036 221.341 60.6071C220.116 59.4474 218.358 59.038 216.699 59.1895C215.722 59.3885 214.985 60.1503 214.506 60.997C212.61 59.7442 210.398 58.9903 208.206 58.4263C205.11 57.442 201.943 56.4836 198.729 55.8588C200.52 55.4096 202.357 55.1768 204.161 54.8432C205.811 54.5967 207.493 54.4511 209.157 54.4711C209.212 54.7287 209.286 54.9715 209.386 55.1871C210.142 56.6848 211.954 57.5999 213.595 57.614C216.459 57.2146 217.441 53.4036 216.307 51.1033C214.98 47.7019 211.155 48.0705 209.804 51.271C209.611 51.8405 209.005 52.5527 209.427 53.152C208.982 53.0534 208.476 53.119 208.03 53.0638C204.415 53.0427 200.752 53.7107 197.319 54.8466C196.866 55.0086 196.434 55.2199 196.002 55.4312C193.843 55.1727 191.665 55.0799 189.479 55.3015C188.501 55.4467 183.618 55.9887 182.385 57.062C179.865 54.9731 177.054 53.2484 174.169 51.6799C172.514 50.7417 170.785 49.9598 169.025 49.2383C171.126 49.326 173.228 49.3704 175.331 49.2638C181.478 48.8492 187.507 47.3821 193.438 45.7634C197.667 44.4458 201.589 42.31 205.435 40.1692C209.886 37.4133 214.071 34.2294 218.605 31.6067C218.917 31.2918 218.972 30.741 218.644 30.4235C218.48 30.2647 218.264 30.1708 218.05 30.1307C215.501 29.9774 212.962 30.6303 210.445 30.9769C208.026 31.3778 205.6 31.7478 203.189 32.1361C196.962 33.2362 190.846 35.0025 185.07 37.6008C181.159 39.1844 177.346 40.9732 173.632 42.9673C170.936 44.3008 167.963 46.0602 165.051 46.7395C162.242 47.3965 159.069 46.9137 156.355 46.6451C153.007 46.3077 149.679 45.7073 146.323 45.5333C141.753 45.2104 137.174 45.0944 132.587 45.0985C134.063 44.3936 135.508 43.652 136.935 42.8714C141.116 40.4753 145.572 38.6021 149.62 35.9868C150.674 35.3401 151.711 34.6647 152.762 34.0077C152.928 34.2739 153.272 34.3079 153.571 34.2868C154.296 34.2819 155.019 34.213 155.745 34.1109C157.478 33.9004 159.232 33.7826 160.924 33.3328C162.777 32.8166 164.575 32.1502 166.394 31.5331C171.516 29.6787 176.779 27.4707 180.499 23.3842C181.051 23.7831 181.763 24.0182 182.4 24.054C185.686 24.5123 188.988 21.8091 189.01 18.4739C188.864 15.5734 186.572 13.1336 183.549 13.3949C183.101 13.3832 182.641 13.4605 182.187 13.5688C182.124 13.0756 181.931 12.5782 181.727 12.234C179.562 8.31197 172.156 9.57896 170.958 13.7488C170.574 15.3943 171.312 16.9605 172.532 18.0996C170.952 19.8832 169.044 21.3494 167.152 22.7904C164.907 24.5553 162.598 26.226 160.183 27.7578C159.327 28.3187 158.459 28.8717 157.601 29.4223C159.687 25.9563 161.196 22.1724 162.702 18.432C163.95 15.4046 164.78 12.2514 165.473 9.06304C165.491 8.99453 165.49 8.94079 165.498 8.87452C167.12 9.71184 169.155 8.88678 170.416 7.689C172.124 6.0502 171.961 2.76536 169.973 1.43536C167.053 -0.395188 161.958 2.89775 163.427 6.35489C163.648 7.02965 163.874 7.9297 164.441 8.40068C164.395 8.48616 164.352 8.59225 164.338 8.7248C163.215 13.0403 161.776 17.2511 159.975 21.3351C158.731 24.3831 157.47 27.4457 155.682 30.2332C155.618 30.3872 155.636 30.5234 155.673 30.6448C151.726 33.12 147.717 35.5115 143.634 37.7572C139.559 39.6886 135.693 42.0386 131.729 44.1833C131.166 44.4876 130.6 44.7815 129.987 44.9563C129.893 44.9763 129.847 45.0618 129.783 45.1186C123.736 45.1884 117.687 45.4526 111.655 45.7454C99.447 46.416 87.2983 47.8176 75.1519 49.2295C75.0978 49.2303 75.0394 49.2106 74.9772 49.2239C74.9564 49.2284 74.9379 49.2431 74.9194 49.2579C74.4959 49.3057 74.0827 49.3513 73.6592 49.3991C77.5138 48.1079 81.3816 46.8785 85.3468 45.9516C89.7083 44.9503 93.9176 43.4428 98.0368 41.7175C102.428 39.9983 106.844 38.3388 111.064 36.2253C121.869 31.0918 131.361 23.4807 139.469 14.7765C141.442 12.4989 143.32 10.1339 145.007 7.63743C145.277 7.12676 145.871 6.66487 145.805 6.0539C145.524 5.19812 144.651 5.73042 144.218 6.13608C143.734 6.50943 143.231 6.8438 142.718 7.18038C140.705 8.46409 138.493 9.42419 136.316 10.3982C132.242 12.1787 128.178 14.0106 124.27 16.1648C118.598 19.3446 113.196 22.973 107.14 25.4268C100.271 28.6911 93.6674 32.4805 86.9821 36.0935C81.8865 38.6752 76.756 41.2967 72.2341 44.8331C69.9131 46.7005 67.2932 48.2871 65.1808 50.3683C55.8575 51.4434 46.5401 52.6466 37.2787 54.1611C33.2832 54.8467 29.3829 55.9752 25.4273 56.8462C24.2144 57.1067 23.0075 57.3443 21.7902 57.5842C23.6764 56.015 25.3303 54.1724 27.1551 52.5194C32.944 46.803 38.4475 40.7168 43.2 34.1129C43.3244 34.0861 43.4525 34.0263 43.574 33.9355C44.3443 33.533 45.119 33.1511 45.9085 32.7875C49.8101 30.958 53.5765 28.8018 57.0826 26.292C57.5508 25.8465 59.3158 24.8747 59.9984 23.9628C61.1075 24.8348 62.7167 25.1576 64.0121 24.5237C65.2579 23.9113 66.1689 22.4976 66.1426 21.1128C66.1215 20.7616 66.0692 20.4172 65.9962 20.0771C65.9637 19.9763 66.0274 19.9195 66.0467 19.8076C65.2003 14.6538 58.2108 17.2542 58.6914 21.6134C58.7184 22.0927 58.8884 22.5304 59.1138 22.924C58.7679 23.1815 58.4116 23.4412 58.053 23.6907C55.1323 25.6437 52.1331 27.4842 49.1614 29.3511C47.7607 30.2016 46.2964 30.958 44.8595 31.7408C44.9411 31.6155 45.0248 31.5006 45.1086 31.3856C48.7628 26.0306 52.2381 20.4985 54.8326 14.552C54.8549 14.5041 54.8667 14.4584 54.8786 14.4127C56.171 14.6741 57.5468 14.4649 58.6832 13.5957C62.1642 10.9188 60.3188 4.24419 55.6529 4.53474C52.5651 4.34629 49.9424 6.67722 50.37 9.82983C50.601 11.6126 51.8554 13.111 53.4354 13.9035C53.31 14.1783 53.1973 14.4612 53.0668 14.6617C48.0137 25.0166 41.6328 34.7943 33.8198 43.3059C30.6364 46.8135 27.4087 50.266 23.9664 53.5275C22.4614 55.1549 20.8344 56.6684 19.1356 58.1003C14.7492 58.9345 10.3753 59.7767 6.10539 61.1032C4.52068 61.5513 2.91014 61.9295 1.42445 62.6366C0.994861 62.8582 0.78715 63.3555 0.93856 63.808C1.11069 64.2561 1.68959 64.3258 2.06955 64.1257C2.46873 63.9645 2.89526 63.8298 3.31587 63.7179C4.93457 63.3272 6.56365 62.9342 8.18014 62.5332C8.24083 62.5633 8.30965 62.5809 8.36219 62.6235C10.4455 63.5881 12.5124 64.5779 14.4252 65.8594C17.3198 67.8247 20.0469 70.02 22.9845 71.933C26.1048 73.99 29.329 75.8738 32.5776 77.72C37.8233 80.7865 43.8278 82.2349 49.8292 82.9618C57.2843 84.0448 65.0875 83.1128 71.8695 79.7486C72.5071 79.5362 72.9192 78.9304 72.5311 78.3346C71.9511 77.7047 70.9865 77.707 70.2234 77.3858C66.7929 76.2578 63.251 75.5201 59.6978 74.8819C55.7124 74.2502 51.8071 73.2349 47.9026 72.2733C37.1517 69.2249 26.6434 65.3375 16.1248 61.6033C15.5749 61.3656 15.0138 61.2274 14.4327 61.1474C18.1802 60.4181 21.9623 59.8 25.6833 58.947C30.0669 57.8979 34.4004 56.6655 38.8505 55.9255C47.8216 54.4733 56.851 53.3427 65.8899 52.3071C66.4509 52.5962 67.0118 52.8854 67.5668 53.1973C69.3155 54.1692 71.0604 55.1742 72.746 56.2566C75.33 57.8359 77.6753 59.7683 80.0058 61.6823C81.7223 63.0598 83.4817 64.3851 85.1041 65.8799C88.1298 68.6578 90.7465 71.8038 93.4107 74.918C94.8567 76.6016 96.6864 78.0519 97.8835 79.9398C99.1656 81.9711 98.2529 82.6198 98.0847 84.7147C97.7466 88.948 102.101 92.5615 106.126 92.5164C108.105 92.4903 109.795 91.2219 110.917 89.6768C112.8 87.4399 112.721 84.191 111.116 81.8193C109.941 80.1316 108.542 77.9635 106.287 77.8119C104.119 77.7169 101.865 78.6859 100.36 80.2596C98.4529 77.9959 96.5195 75.7595 94.5675 73.5378C92.8206 71.4123 91.1395 69.2403 89.1748 67.3124C85.0063 63.1522 80.294 59.54 75.495 56.1297C73.1967 54.6184 70.7783 53.3053 68.3459 52.0276C70.0192 51.8407 71.6925 51.6539 73.3658 51.467C74.4994 51.3421 75.6204 51.2092 76.7517 51.0741C78.4593 51.602 80.1587 52.1425 81.7757 52.9055C86.2063 55.1554 90.6858 57.3301 95.106 59.5822C96.6527 60.371 98.1244 61.3161 99.6489 62.1529C99.8938 62.2835 100.135 62.4473 100.425 62.385C100.591 62.3493 100.721 62.2461 100.823 62.1163C100.737 62.3719 100.684 62.6312 100.665 62.894C100.648 63.07 100.613 63.2608 100.641 63.4382C100.663 63.5412 100.627 63.5273 100.587 63.6437C100.382 64.3022 100.472 65.0265 100.574 65.7052C100.974 68.4757 103.48 71.0528 106.366 71.112C108.529 70.9817 110.621 69.4652 111.503 67.5083C113.379 63.5699 110.715 58.0842 105.875 59.0266C104.232 59.5087 101.659 60.0505 100.944 61.8209C100.966 61.7192 100.962 61.6014 100.919 61.5029C100.816 61.2233 100.554 61.1177 100.315 60.9642C97.4164 58.9783 94.3424 57.2886 91.1668 55.7824C87.5243 54.0208 83.95 52.0721 80.148 50.6789C87.1064 49.8529 94.0707 49.0041 101.051 48.4321C105.043 48.0816 109.039 47.8054 113.047 47.5807C114.729 48.5453 116.274 49.7333 117.77 50.9426C119.953 52.6728 121.637 54.9089 123.545 56.9244C129.149 62.6194 134.454 68.6912 140.645 73.7859C143.956 76.2225 147.62 78.1843 151.302 79.9804C154.751 81.6974 158.423 83.043 162.183 83.9386C167.021 84.9045 171.81 86.1937 176.771 86.4217C178.013 86.4999 177.909 85.3044 177.008 84.9481C174.18 83.3457 171.737 81.208 169.166 79.2377C163.802 75.3667 158.947 70.8367 153.531 67.0306C148.591 63.9201 143.607 60.8621 138.538 57.9624C134.977 56.0755 131.357 54.266 127.682 52.6083C125.486 51.7218 123.249 50.9518 121.055 50.0757C120.243 49.7325 119.389 49.5388 118.58 49.2059C118.417 49.1546 118.234 49.1616 118.089 49.2465C117.796 49.0401 116.762 48.2165 115.634 47.4564C119.617 47.2693 123.599 47.1257 127.588 47.0667C136.465 46.8957 145.404 46.9595 154.205 48.2494C157.464 48.6812 160.741 48.8399 164.023 48.9757C164.285 48.9841 164.55 49.0028 164.824 49.0193C165.972 49.4628 167.127 49.8938 168.244 50.3977C173.177 52.766 177.997 55.5682 182.105 59.1917C184.872 61.6262 187.293 63.758 186.664 67.6979C186.08 71.3912 184.754 74.9634 182.831 78.1789C180.88 76.1619 177.463 75.8069 176.441 79.0768C175.919 81.1399 177.485 83.5845 179.598 83.9285C181.821 84.2811 182.483 81.8106 183.119 80.3805C184.024 78.3322 185.645 76.6906 186.487 74.602C187.059 73.1749 189.41 67.658 188.335 66.2396C190.017 68.4654 191.53 70.8136 192.762 73.3192C194.025 75.9153 194.656 78.7547 195.133 81.584C195.514 83.809 196.06 85.9984 196.585 88.1923C196.825 89.2079 197.414 90.5366 197.357 91.5836C197.306 92.5106 196.622 93.2612 196.645 94.2802C196.734 96.9666 199.888 99.0272 202.371 97.8148C204.206 96.9143 205.633 94.6244 205.031 92.5764L204.996 92.6162ZM164.043 26.7456C167.298 24.2789 170.876 22.0553 173.492 18.885C174.809 19.7126 176.411 20.1016 177.812 19.7576C177.923 19.7228 178.029 19.6571 178.126 19.6039C178.421 20.4244 178.878 21.1885 179.534 21.7698C179.536 22.0282 179.609 22.2711 179.71 22.4866C176.379 25.8105 172.01 27.7401 167.681 29.4459C164.534 30.596 161.429 31.9957 158.106 32.58C156.813 32.7714 155.514 32.9856 154.208 33.1151C157.512 31.026 160.801 28.9185 164.045 26.7559L164.043 26.7456Z" fill="#E7B588"/>
</svg>
