<svg width="25" height="25" viewBox="0 0 25 25" fill="none" xmlns="http://www.w3.org/2000/svg">
<path d="M17.7083 7.1875C17.7083 6.57193 17.5736 5.96239 17.3118 5.39367C17.0501 4.82496 16.6664 4.30821 16.1828 3.87294C15.6992 3.43766 15.125 3.09238 14.4931 2.85681C13.8612 2.62125 13.1839 2.5 12.5 2.5C11.816 2.5 11.1387 2.62125 10.5068 2.85681C9.87491 3.09238 9.30075 3.43766 8.81711 3.87294C8.33347 4.30821 7.94983 4.82496 7.68809 5.39367C7.42634 5.96239 7.29163 6.57193 7.29163 7.1875" stroke="#191919" stroke-linecap="round"/>
<path d="M18.1653 7.89014H6.84137C4.38721 7.89014 2.51177 10.0798 2.88888 12.5048L3.94084 19.2694C4.24383 21.2178 5.9215 22.6548 7.89333 22.6548H17.1134C19.0852 22.6548 20.7629 21.2178 21.0659 19.2694L22.1178 12.5048C22.4949 10.0798 20.6195 7.89014 18.1653 7.89014Z" stroke="#191919"/>
<path d="M15.625 12.5C15.625 12.9104 15.5442 13.3167 15.3871 13.6959C15.2301 14.075 14.9999 14.4195 14.7097 14.7097C14.4195 14.9999 14.075 15.2301 13.6959 15.3871C13.3167 15.5442 12.9104 15.625 12.5 15.625C12.0896 15.625 11.6833 15.5442 11.3041 15.3871C10.925 15.2301 10.5805 14.9999 10.2903 14.7097C10.0001 14.4195 9.76992 14.075 9.61288 13.6959C9.45583 13.3167 9.375 12.9104 9.375 12.5" stroke="#191919" stroke-linecap="round" stroke-linejoin="round"/>
</svg>
