<svg width="24" height="25" viewBox="0 0 24 25" fill="none" xmlns="http://www.w3.org/2000/svg">
<path d="M18.1405 22.5203C17.2605 22.7911 16.2205 22.9161 15.0005 22.9161H9.00047C7.78047 22.9161 6.74047 22.7911 5.86047 22.5203C6.08047 19.812 8.75047 17.6765 12.0005 17.6765C15.2505 17.6765 17.9205 19.812 18.1405 22.5203Z" stroke="#191919" stroke-linecap="round" stroke-linejoin="round"/>
<path d="M15.0002 2.0835H9.00024C4.00024 2.0835 2.00024 4.16683 2.00024 9.37516V15.6252C2.00024 19.5627 3.14024 21.7189 5.86024 22.521C6.08024 19.8127 8.75024 17.6772 12.0002 17.6772C15.2502 17.6772 17.9202 19.8127 18.1402 22.521C20.8602 21.7189 22.0002 19.5627 22.0002 15.6252V9.37516C22.0002 4.16683 20.0002 2.0835 15.0002 2.0835ZM12.0002 14.7606C10.0202 14.7606 8.42024 13.0835 8.42024 11.021C8.42024 8.95851 10.0202 7.29183 12.0002 7.29183C13.9802 7.29183 15.5802 8.95851 15.5802 11.021C15.5802 13.0835 13.9802 14.7606 12.0002 14.7606Z" stroke="#191919" stroke-linecap="round" stroke-linejoin="round"/>
<path d="M15.5799 11.0204C15.5799 13.0829 13.9799 14.76 11.9999 14.76C10.0199 14.76 8.41992 13.0829 8.41992 11.0204C8.41992 8.95794 10.0199 7.29126 11.9999 7.29126C13.9799 7.29126 15.5799 8.95794 15.5799 11.0204Z" stroke="#191919" stroke-linecap="round" stroke-linejoin="round"/>
</svg>
