<svg width="24" height="25" viewBox="0 0 24 25" fill="none" xmlns="http://www.w3.org/2000/svg">
<path d="M2 13.5999L4.5 12.0999C6.04 11.1799 7.96 11.1799 9.5 12.0999C11.04 13.0199 12.96 13.0199 14.5 12.0999C16.04 11.1799 17.96 11.1799 19.5 12.0999L22 13.5999" stroke="#191919" stroke-miterlimit="10" stroke-linecap="round" stroke-linejoin="round"/>
<path d="M2 4.3999L4.5 5.8999C6.04 6.8199 7.96 6.8199 9.5 5.8999C11.04 4.9799 12.96 4.9799 14.5 5.8999C16.04 6.8199 17.96 6.8199 19.5 5.8999L22 4.3999" stroke="#191919" stroke-miterlimit="10" stroke-linecap="round" stroke-linejoin="round"/>
<path d="M2 20.5999L4.5 19.0999C6.04 18.1799 7.96 18.1799 9.5 19.0999C11.04 20.0199 12.96 20.0199 14.5 19.0999C16.04 18.1799 17.96 18.1799 19.5 19.0999L22 20.5999" stroke="#191919" stroke-miterlimit="10" stroke-linecap="round" stroke-linejoin="round"/>
</svg>
